<svg id="svg" version="1.1" xmlns="http://www.w3.org/2000/svg" xmlns:xlink="http://www.w3.org/1999/xlink" width="400" height="400" viewBox="0, 0, 400,400"><g id="svgg"><path id="path0" d="M160.800 16.588 C 155.651 17.721,149.600 23.151,149.600 26.638 C 149.600 27.141,149.420 27.664,149.200 27.800 C 147.763 28.688,149.203 36.338,151.452 39.763 C 152.901 41.968,220.679 109.640,222.200 110.399 C 222.860 110.729,223.490 111.090,223.600 111.201 C 224.648 112.264,233.035 112.900,234.705 112.044 C 235.087 111.848,236.261 111.276,237.314 110.774 C 239.642 109.662,242.800 106.681,242.800 105.595 C 242.800 105.378,242.936 105.200,243.102 105.200 C 243.413 105.200,243.921 104.073,244.735 101.572 C 245.304 99.824,245.352 94.141,244.800 93.800 C 244.580 93.664,244.400 93.239,244.400 92.856 C 244.400 91.981,243.501 90.007,243.100 90.003 C 242.935 90.001,242.800 89.752,242.800 89.449 C 242.800 88.389,173.126 19.095,170.993 18.035 C 167.407 16.252,164.319 15.814,160.800 16.588 M159.000 71.195 C 168.680 80.872,176.763 88.792,176.962 88.795 C 177.161 88.798,169.393 80.880,159.700 71.200 C 150.006 61.520,141.924 53.600,141.738 53.601 C 141.552 53.601,149.320 61.519,159.000 71.195 M97.399 97.684 C 73.420 121.710,53.929 141.285,54.087 141.184 C 54.322 141.032,128.450 67.019,138.390 57.011 C 140.034 55.355,141.294 54.000,141.189 54.000 C 141.084 54.000,121.379 73.658,97.399 97.684 M138.125 79.500 C 137.706 79.885,137.584 80.053,137.856 79.872 C 138.127 79.692,138.855 79.392,139.474 79.207 C 140.387 78.933,140.438 78.862,139.744 78.834 C 139.274 78.815,138.545 79.115,138.125 79.500 M147.785 81.900 C 148.402 82.835,148.983 83.600,149.076 83.600 C 149.364 83.600,147.833 81.166,147.232 80.669 C 146.920 80.411,147.168 80.965,147.785 81.900 M133.276 83.451 C 132.108 84.633,131.298 85.595,131.476 85.590 C 131.888 85.577,135.772 81.632,135.559 81.443 C 135.471 81.366,134.444 82.269,133.276 83.451 M149.325 86.600 C 149.322 88.862,149.376 89.105,149.603 87.866 C 149.758 87.022,149.760 85.762,149.607 85.066 C 149.408 84.160,149.327 84.597,149.325 86.600 M130.060 86.642 C 129.762 86.978,129.599 87.332,129.695 87.429 C 129.792 87.526,130.198 87.244,130.598 86.802 C 130.997 86.361,131.161 86.007,130.962 86.015 C 130.763 86.024,130.357 86.305,130.060 86.642 M128.086 88.654 C 127.583 89.174,127.330 89.600,127.524 89.600 C 127.948 89.600,129.397 88.055,129.164 87.851 C 129.074 87.772,128.589 88.133,128.086 88.654 M178.196 90.396 C 178.826 91.054,179.431 91.503,179.539 91.394 C 179.803 91.130,177.970 89.200,177.455 89.200 C 177.233 89.200,177.566 89.738,178.196 90.396 M148.052 90.900 C 147.605 91.615,139.621 99.805,130.309 109.100 C 120.997 118.395,113.476 126.000,113.595 126.000 C 114.020 126.000,148.317 91.384,148.769 90.500 C 149.458 89.150,148.980 89.417,148.052 90.900 M126.060 90.642 C 125.762 90.978,125.599 91.332,125.695 91.429 C 125.792 91.526,126.198 91.244,126.598 90.802 C 126.997 90.361,127.161 90.007,126.962 90.015 C 126.763 90.024,126.357 90.305,126.060 90.642 M124.289 92.405 C 123.526 93.296,123.384 93.781,123.998 93.401 C 124.390 93.159,125.346 91.600,125.103 91.600 C 125.034 91.600,124.668 91.962,124.289 92.405 M180.000 91.837 C 180.000 92.282,193.152 105.382,193.374 105.159 C 193.461 105.071,190.487 101.956,186.766 98.236 C 183.045 94.516,180.000 91.636,180.000 91.837 M121.660 95.042 C 121.362 95.378,121.199 95.732,121.295 95.829 C 121.392 95.926,121.798 95.644,122.198 95.202 C 122.597 94.761,122.761 94.407,122.562 94.415 C 122.363 94.424,121.957 94.705,121.660 95.042 M119.686 97.054 C 119.183 97.574,118.930 98.000,119.124 98.000 C 119.548 98.000,120.997 96.455,120.764 96.251 C 120.674 96.172,120.189 96.533,119.686 97.054 M117.660 99.042 C 117.362 99.378,117.199 99.732,117.295 99.829 C 117.392 99.926,117.798 99.644,118.198 99.202 C 118.597 98.761,118.761 98.407,118.562 98.415 C 118.363 98.424,117.957 98.705,117.660 99.042 M114.900 101.813 C 113.965 102.749,113.200 103.643,113.200 103.798 C 113.200 103.952,114.040 103.251,115.066 102.239 C 116.093 101.227,116.858 100.334,116.766 100.254 C 116.675 100.175,115.835 100.876,114.900 101.813 M111.260 105.442 C 110.962 105.778,110.799 106.132,110.895 106.229 C 110.992 106.326,111.398 106.044,111.798 105.602 C 112.197 105.161,112.361 104.807,112.162 104.815 C 111.963 104.824,111.557 105.105,111.260 105.442 M195.800 107.948 C 197.120 109.232,198.282 110.213,198.382 110.127 C 198.615 109.925,194.160 105.598,193.726 105.606 C 193.547 105.609,194.480 106.663,195.800 107.948 M108.283 108.455 C 107.229 109.525,106.509 110.399,106.683 110.397 C 107.093 110.393,110.585 106.844,110.366 106.654 C 110.275 106.575,109.337 107.386,108.283 108.455 M198.800 110.555 C 198.800 110.729,200.780 112.868,203.200 115.307 C 205.620 117.746,207.597 119.575,207.594 119.371 C 207.591 119.167,205.611 117.028,203.194 114.619 C 200.777 112.209,198.800 110.380,198.800 110.555 M105.260 111.442 C 104.962 111.778,104.799 112.132,104.895 112.229 C 104.992 112.326,105.398 112.044,105.798 111.602 C 106.197 111.161,106.361 110.807,106.162 110.815 C 105.963 110.824,105.557 111.105,105.260 111.442 M102.796 114.097 C 101.867 115.494,101.449 116.248,101.852 115.800 C 103.615 113.840,104.086 113.200,103.766 113.200 C 103.561 113.200,103.124 113.604,102.796 114.097 M101.067 116.667 C 100.920 116.813,100.811 117.308,100.825 117.767 C 100.849 118.533,100.882 118.523,101.234 117.642 C 101.626 116.663,101.544 116.189,101.067 116.667 M163.796 163.615 C 139.818 187.604,120.117 207.359,120.016 207.515 C 119.915 207.672,139.580 188.090,163.716 164.001 C 187.852 139.911,207.600 120.156,207.600 120.101 C 207.600 119.815,204.215 123.177,163.796 163.615 M100.836 121.353 C 100.790 122.308,102.251 124.728,103.580 125.900 C 105.366 127.474,105.247 126.868,103.409 125.030 C 102.435 124.056,101.466 122.661,101.255 121.930 C 101.045 121.198,100.856 120.939,100.836 121.353 M107.507 127.490 C 108.226 127.579,109.306 127.577,109.907 127.486 C 110.508 127.395,109.920 127.322,108.600 127.324 C 107.280 127.326,106.788 127.401,107.507 127.490 M84.800 133.961 C 84.170 134.139,84.837 134.243,86.600 134.243 C 88.363 134.243,89.030 134.139,88.400 133.961 C 87.850 133.807,87.040 133.680,86.600 133.680 C 86.160 133.680,85.350 133.807,84.800 133.961 M81.585 135.629 L 80.200 136.858 81.800 135.745 C 82.680 135.133,83.475 134.580,83.567 134.516 C 83.658 134.452,83.562 134.400,83.352 134.400 C 83.142 134.400,82.347 134.953,81.585 135.629 M90.200 135.007 C 90.640 135.366,91.360 135.835,91.800 136.051 L 92.600 136.444 91.800 135.793 C 91.360 135.434,90.640 134.965,90.200 134.749 L 89.400 134.356 90.200 135.007 M79.423 138.089 C 79.080 138.578,78.815 139.343,78.834 139.789 C 78.860 140.395,78.954 140.316,79.207 139.474 C 79.392 138.855,79.759 138.090,80.021 137.774 C 80.283 137.458,80.396 137.200,80.272 137.200 C 80.147 137.200,79.765 137.600,79.423 138.089 M94.133 141.834 C 94.133 143.468,94.192 143.625,94.478 142.766 C 94.671 142.187,94.671 141.321,94.478 140.799 C 94.205 140.062,94.133 140.279,94.133 141.834 M53.601 141.738 C 53.600 141.924,61.520 150.006,71.200 159.700 C 80.880 169.393,88.798 177.161,88.795 176.962 C 88.792 176.763,80.872 168.680,71.195 159.000 C 61.519 149.320,53.601 141.552,53.601 141.738 M92.157 146.900 C 91.725 147.395,90.927 148.123,90.385 148.517 C 89.436 149.208,89.449 149.209,90.717 148.521 C 91.442 148.128,92.301 147.401,92.626 146.904 C 93.384 145.748,93.166 145.746,92.157 146.900 M80.669 147.232 C 81.166 147.833,83.600 149.364,83.600 149.076 C 83.600 148.983,82.835 148.402,81.900 147.785 C 80.965 147.168,80.411 146.920,80.669 147.232 M27.400 149.281 C 17.790 152.450,13.633 162.136,18.060 171.043 C 19.097 173.130,88.410 242.800,89.449 242.800 C 89.752 242.800,90.000 242.980,90.000 243.200 C 90.000 243.420,90.360 243.600,90.800 243.600 C 91.240 243.600,91.600 243.780,91.600 244.000 C 91.600 244.220,92.014 244.400,92.520 244.400 C 93.026 244.400,93.634 244.594,93.871 244.831 C 94.646 245.606,103.600 244.799,103.600 243.955 C 103.600 243.760,103.960 243.600,104.400 243.600 C 104.840 243.600,105.200 243.420,105.200 243.200 C 105.200 242.980,105.378 242.800,105.595 242.800 C 106.681 242.800,109.662 239.642,110.774 237.314 C 111.276 236.261,111.848 235.087,112.044 234.705 C 112.900 233.035,112.264 224.648,111.201 223.600 C 111.090 223.490,110.729 222.860,110.399 222.200 C 109.644 220.688,41.983 152.926,39.763 151.459 C 36.136 149.062,30.875 148.135,27.400 149.281 M85.066 149.607 C 85.762 149.760,87.022 149.758,87.866 149.603 C 89.105 149.376,88.862 149.322,86.600 149.325 C 84.597 149.327,84.160 149.408,85.066 149.607 M199.400 151.856 C 197.649 152.767,152.887 197.530,151.973 199.284 C 150.405 202.294,151.995 208.400,154.347 208.400 C 154.596 208.400,154.800 208.580,154.800 208.800 C 154.800 209.020,155.239 209.200,155.776 209.200 C 156.313 209.200,156.864 209.380,157.000 209.600 C 157.306 210.095,158.972 210.122,159.905 209.647 C 160.287 209.452,161.131 209.047,161.779 208.747 C 163.320 208.033,208.033 163.320,208.747 161.779 C 209.047 161.131,209.452 160.287,209.647 159.905 C 210.122 158.972,210.095 157.306,209.600 157.000 C 209.380 156.864,209.200 156.313,209.200 155.776 C 209.200 155.239,209.020 154.800,208.800 154.800 C 208.580 154.800,208.400 154.596,208.400 154.347 C 208.400 152.100,202.220 150.389,199.400 151.856 M89.200 177.455 C 89.200 177.970,91.130 179.803,91.394 179.539 C 91.503 179.431,91.054 178.826,90.396 178.196 C 89.738 177.566,89.200 177.233,89.200 177.455 M98.236 186.766 C 101.956 190.487,105.071 193.461,105.159 193.374 C 105.382 193.152,92.282 180.000,91.837 180.000 C 91.636 180.000,94.516 183.045,98.236 186.766 M197.237 197.384 L 186.274 208.360 187.298 209.680 C 187.861 210.406,188.929 211.654,189.673 212.454 C 190.416 213.254,191.768 214.784,192.677 215.854 C 193.587 216.924,194.661 218.178,195.065 218.639 C 195.970 219.673,200.451 224.756,201.000 225.371 C 201.343 225.755,204.532 229.415,207.472 232.797 C 209.138 234.715,210.079 235.811,211.735 237.766 C 212.651 238.848,213.584 239.928,213.809 240.166 C 214.173 240.553,218.989 246.058,225.200 253.187 C 226.410 254.576,227.760 256.164,228.200 256.716 C 228.640 257.268,229.363 258.098,229.806 258.560 C 230.690 259.481,237.805 267.637,239.033 269.137 C 239.455 269.652,240.489 270.822,241.330 271.737 C 242.172 272.652,243.341 274.030,243.929 274.800 C 244.517 275.570,245.451 276.650,246.006 277.200 C 246.561 277.750,248.874 280.360,251.145 283.000 C 253.415 285.640,255.842 288.436,256.537 289.214 C 257.232 289.992,258.610 291.610,259.600 292.810 C 260.590 294.010,261.940 295.550,262.600 296.233 C 263.856 297.532,267.621 301.790,269.010 303.482 L 269.820 304.469 287.092 287.206 L 304.364 269.944 302.891 268.672 C 302.080 267.972,300.895 266.950,300.257 266.400 C 299.619 265.850,298.608 264.950,298.011 264.400 C 297.414 263.850,295.964 262.590,294.791 261.600 C 293.617 260.610,292.277 259.440,291.813 259.000 C 291.349 258.560,289.806 257.215,288.385 256.010 C 286.963 254.806,285.710 253.724,285.600 253.605 C 285.490 253.486,284.140 252.311,282.600 250.994 C 281.060 249.677,279.530 248.328,279.200 247.995 C 278.870 247.663,277.430 246.405,276.000 245.200 C 274.570 243.995,273.130 242.737,272.799 242.405 C 272.469 242.072,271.029 240.815,269.599 239.610 C 268.170 238.406,266.910 237.324,266.800 237.205 C 266.690 237.086,265.340 235.911,263.801 234.594 C 262.261 233.277,260.551 231.742,260.001 231.181 C 259.450 230.621,258.620 229.901,258.156 229.581 C 257.691 229.262,256.004 227.830,254.406 226.400 C 252.808 224.970,251.298 223.620,251.050 223.400 C 250.803 223.180,248.710 221.381,246.400 219.403 C 244.090 217.425,241.930 215.535,241.599 215.203 C 241.269 214.871,239.829 213.610,238.399 212.401 C 236.970 211.191,235.420 209.841,234.955 209.401 C 233.635 208.150,229.279 204.356,226.200 201.775 C 224.660 200.484,223.130 199.148,222.800 198.806 C 222.470 198.464,221.570 197.670,220.800 197.041 C 220.030 196.413,218.483 195.066,217.363 194.049 C 216.242 193.032,214.712 191.672,213.963 191.027 C 213.213 190.382,211.726 189.077,210.657 188.127 C 209.588 187.177,208.598 186.402,208.457 186.404 C 208.316 186.406,203.267 191.347,197.237 197.384 M105.606 193.726 C 105.598 194.160,109.925 198.615,110.127 198.382 C 110.213 198.282,109.232 197.120,107.948 195.800 C 106.663 194.480,105.609 193.547,105.606 193.726 M114.619 203.194 C 117.028 205.611,119.167 207.591,119.371 207.594 C 119.575 207.597,117.746 205.620,115.307 203.200 C 112.868 200.780,110.729 198.800,110.555 198.800 C 110.380 198.800,112.209 200.777,114.619 203.194 M320.900 321.024 C 310.285 331.673,301.603 340.524,301.606 340.693 C 301.610 340.862,302.161 341.630,302.831 342.400 C 303.501 343.170,304.835 344.700,305.794 345.800 C 307.643 347.919,308.268 348.643,310.931 351.744 C 311.849 352.813,312.963 354.073,313.406 354.544 C 314.255 355.446,321.301 363.540,322.625 365.134 C 325.910 369.090,329.117 372.659,331.643 375.171 C 351.862 395.284,387.637 377.351,383.438 349.207 C 381.984 339.459,378.921 334.810,367.358 324.797 C 366.721 324.246,364.310 322.178,362.000 320.201 C 359.690 318.224,357.530 316.332,357.200 315.996 C 356.870 315.659,355.970 314.870,355.200 314.241 C 354.430 313.613,352.883 312.266,351.763 311.249 C 349.593 309.280,348.879 308.659,344.813 305.200 C 343.391 303.990,341.872 302.685,341.438 302.300 C 341.004 301.915,340.548 301.614,340.425 301.631 C 340.301 301.648,331.515 310.375,320.900 321.024 M40.427 322.691 C 35.399 323.316,30.688 330.492,31.999 335.528 C 32.869 338.869,35.443 342.800,36.761 342.800 C 37.002 342.800,37.200 342.936,37.200 343.102 C 37.200 343.553,39.094 344.225,41.824 344.741 C 45.110 345.363,173.963 345.398,176.723 344.778 C 179.874 344.070,181.600 343.489,181.600 343.136 C 181.600 342.951,181.798 342.800,182.039 342.800 C 182.656 342.800,185.103 340.040,185.763 338.600 C 188.383 332.884,186.858 327.776,181.400 323.988 L 179.400 322.600 110.600 322.560 C 72.760 322.538,41.182 322.597,40.427 322.691 M37.400 361.598 C 36.960 361.788,35.846 361.956,34.924 361.972 C 34.002 361.987,33.136 362.180,33.000 362.400 C 32.864 362.620,32.393 362.800,31.954 362.800 C 26.267 362.800,17.636 372.971,16.663 380.818 C 16.539 381.818,16.320 382.943,16.176 383.318 C 15.930 383.959,21.475 384.000,109.400 384.000 C 197.325 384.000,202.870 383.959,202.624 383.318 C 202.480 382.943,202.261 381.818,202.137 380.818 C 201.172 373.030,192.522 362.800,186.902 362.800 C 186.494 362.800,185.989 362.637,185.780 362.439 C 185.571 362.240,184.500 361.946,183.400 361.786 C 180.522 361.367,38.359 361.184,37.400 361.598 " stroke="none" fill="#93542c" fill-rule="evenodd"></path><path id="path1" d="M97.621 97.790 C 73.543 121.872,53.923 141.661,54.021 141.765 C 54.908 142.707,118.144 206.016,118.866 206.686 L 119.822 207.572 163.735 163.658 L 207.648 119.743 174.817 86.972 C 156.760 68.947,141.854 54.156,141.693 54.103 C 141.532 54.049,121.699 73.709,97.621 97.790 M146.114 79.923 C 149.340 82.058,150.665 86.723,148.991 90.056 C 148.211 91.608,114.068 126.000,113.306 126.000 C 113.028 126.000,112.800 126.144,112.800 126.320 C 112.800 126.842,110.266 127.600,108.520 127.600 C 102.480 127.600,98.608 120.657,101.815 115.577 C 102.931 113.809,134.456 82.116,136.989 80.216 C 139.584 78.269,143.428 78.146,146.114 79.923 M90.468 134.886 C 93.332 136.496,95.152 140.557,94.287 143.406 C 92.598 148.967,87.299 151.375,82.693 148.676 C 73.645 143.373,81.327 129.749,90.468 134.886 " stroke="none" fill="#fbb353" fill-rule="evenodd"></path><path id="path2" d="M155.800 0.271 C 155.140 0.376,154.429 0.628,154.220 0.831 C 154.011 1.034,153.246 1.200,152.520 1.200 C 151.794 1.200,151.200 1.380,151.200 1.600 C 151.200 1.820,150.840 2.000,150.400 2.000 C 149.960 2.000,149.600 2.159,149.600 2.353 C 149.600 2.548,149.285 2.807,148.900 2.929 C 147.858 3.259,145.891 4.504,145.154 5.300 C 144.798 5.685,144.377 6.000,144.219 6.000 C 144.061 6.000,143.362 6.536,142.666 7.191 C 141.970 7.846,140.635 9.092,139.700 9.960 C 138.765 10.827,138.000 11.782,138.000 12.080 C 138.000 12.379,137.640 12.883,137.200 13.200 C 136.760 13.517,136.400 14.097,136.400 14.488 C 136.400 14.880,136.220 15.200,136.000 15.200 C 135.780 15.200,135.600 15.560,135.600 16.000 C 135.600 16.440,135.420 16.800,135.200 16.800 C 134.980 16.800,134.800 17.160,134.800 17.600 C 134.800 18.040,134.620 18.400,134.400 18.400 C 134.180 18.400,134.000 18.940,134.000 19.600 C 134.000 20.260,133.820 20.800,133.600 20.800 C 133.380 20.800,133.200 21.340,133.200 22.000 C 133.200 22.660,133.020 23.200,132.800 23.200 C 132.580 23.200,132.400 24.179,132.400 25.376 C 132.400 26.573,132.220 27.664,132.000 27.800 C 131.780 27.936,131.600 29.567,131.600 31.424 C 131.600 33.408,131.765 34.800,132.000 34.800 C 132.220 34.800,132.400 35.779,132.400 36.976 L 132.400 39.151 85.776 85.776 L 39.151 132.400 36.976 132.400 C 35.779 132.400,34.800 132.220,34.800 132.000 C 34.800 131.769,33.541 131.600,31.824 131.600 C 30.187 131.600,28.736 131.780,28.600 132.000 C 28.464 132.220,27.193 132.400,25.776 132.400 C 24.325 132.400,23.200 132.575,23.200 132.800 C 23.200 133.020,22.660 133.200,22.000 133.200 C 21.340 133.200,20.800 133.380,20.800 133.600 C 20.800 133.820,20.260 134.000,19.600 134.000 C 18.940 134.000,18.400 134.180,18.400 134.400 C 18.400 134.620,18.040 134.800,17.600 134.800 C 17.160 134.800,16.800 134.980,16.800 135.200 C 16.800 135.420,16.440 135.600,16.000 135.600 C 15.560 135.600,15.200 135.780,15.200 136.000 C 15.200 136.220,14.906 136.400,14.547 136.400 C 14.188 136.400,13.603 136.724,13.247 137.119 C 12.891 137.514,11.970 138.269,11.200 138.796 C 10.430 139.323,9.530 140.091,9.200 140.502 C 8.870 140.914,8.015 141.851,7.300 142.585 C 6.585 143.319,6.000 144.052,6.000 144.213 C 6.000 144.374,5.685 144.798,5.300 145.154 C 4.504 145.891,3.259 147.858,2.929 148.900 C 2.807 149.285,2.548 149.600,2.353 149.600 C 2.159 149.600,2.000 149.960,2.000 150.400 C 2.000 150.840,1.820 151.200,1.600 151.200 C 1.380 151.200,1.200 151.794,1.200 152.520 C 1.200 153.246,0.975 154.065,0.700 154.340 C -0.020 155.060,-0.020 173.260,0.700 173.500 C 0.975 173.592,1.200 174.192,1.200 174.833 C 1.200 175.475,1.380 176.000,1.600 176.000 C 1.820 176.000,2.000 176.360,2.000 176.800 C 2.000 177.240,2.180 177.600,2.400 177.600 C 2.620 177.600,2.800 177.960,2.800 178.400 C 2.800 178.840,2.980 179.200,3.200 179.200 C 3.420 179.200,3.600 179.560,3.600 180.000 C 3.600 180.440,3.780 180.800,4.000 180.800 C 4.220 180.800,4.400 181.052,4.400 181.359 C 4.400 181.667,5.300 182.838,6.400 183.961 C 7.500 185.085,8.400 186.170,8.400 186.374 C 8.400 186.808,73.839 252.227,76.676 254.629 C 77.734 255.525,79.230 256.605,80.000 257.029 C 80.770 257.453,81.492 257.921,81.604 258.068 C 81.716 258.216,82.301 258.460,82.904 258.612 C 83.507 258.763,84.000 259.047,84.000 259.243 C 84.000 259.440,84.540 259.600,85.200 259.600 C 85.860 259.600,86.400 259.780,86.400 260.000 C 86.400 260.220,86.940 260.400,87.600 260.400 C 88.260 260.400,88.800 260.580,88.800 260.800 C 88.800 261.020,89.700 261.200,90.800 261.200 C 91.900 261.200,92.800 261.380,92.800 261.600 C 92.800 261.844,94.667 262.000,97.600 262.000 C 100.533 262.000,102.400 261.844,102.400 261.600 C 102.400 261.380,103.199 261.200,104.176 261.200 C 105.153 261.200,106.064 261.020,106.200 260.800 C 106.336 260.580,106.977 260.400,107.624 260.400 C 108.271 260.400,108.800 260.220,108.800 260.000 C 108.800 259.780,109.160 259.600,109.600 259.600 C 110.040 259.600,110.400 259.436,110.400 259.235 C 110.400 259.034,111.120 258.749,112.000 258.600 C 112.880 258.451,113.600 258.166,113.600 257.965 C 113.600 257.764,113.825 257.600,114.100 257.600 C 114.375 257.599,115.123 257.149,115.762 256.600 C 116.401 256.050,117.062 255.600,117.230 255.600 C 117.629 255.600,123.600 249.628,123.600 249.229 C 123.600 249.060,123.960 248.507,124.400 248.000 C 124.840 247.493,125.200 246.745,125.200 246.339 C 125.200 245.932,125.380 245.600,125.600 245.600 C 125.820 245.600,126.000 245.240,126.000 244.800 C 126.000 244.360,126.180 244.000,126.400 244.000 C 126.620 244.000,126.800 243.640,126.800 243.200 C 126.800 242.760,126.980 242.400,127.200 242.400 C 127.420 242.400,127.600 241.860,127.600 241.200 C 127.600 240.540,127.780 240.000,128.000 240.000 C 128.220 240.000,128.400 239.291,128.400 238.424 C 128.400 237.557,128.580 236.736,128.800 236.600 C 129.340 236.266,129.340 224.000,128.800 224.000 C 127.670 224.000,128.805 222.385,132.612 218.579 C 136.797 214.394,138.000 213.816,138.000 215.989 C 138.000 217.942,147.566 225.200,150.140 225.200 C 150.723 225.200,151.200 225.380,151.200 225.600 C 151.200 225.825,152.325 226.000,153.776 226.000 C 155.193 226.000,156.464 226.180,156.600 226.400 C 156.736 226.620,157.647 226.800,158.624 226.800 C 159.601 226.800,160.400 226.620,160.400 226.400 C 160.400 226.178,161.467 226.000,162.800 226.000 C 164.133 226.000,165.200 225.822,165.200 225.600 C 165.200 225.380,165.677 225.200,166.260 225.200 C 167.700 225.200,171.510 223.339,173.094 221.862 C 173.806 221.198,174.447 220.732,174.520 220.827 C 176.386 223.276,178.181 225.370,179.700 226.871 C 180.745 227.903,181.600 228.926,181.600 229.143 C 181.600 229.361,182.860 230.814,184.400 232.372 C 185.940 233.931,187.200 235.369,187.200 235.568 C 187.200 235.767,188.235 236.987,189.500 238.279 C 190.765 239.571,192.337 241.342,192.993 242.214 C 193.650 243.086,194.955 244.570,195.893 245.511 C 196.832 246.451,197.600 247.393,197.600 247.603 C 197.600 247.813,198.770 249.155,200.200 250.585 C 201.630 252.015,202.800 253.369,202.800 253.593 C 202.800 253.817,202.980 254.000,203.200 254.000 C 203.420 254.000,203.600 254.198,203.600 254.439 C 203.600 254.680,204.680 255.909,206.000 257.169 C 207.320 258.429,208.400 259.589,208.400 259.747 C 208.400 260.104,208.960 260.787,211.005 262.923 C 211.888 263.845,213.053 265.230,213.594 266.000 C 214.135 266.770,215.438 268.243,216.489 269.274 C 217.540 270.305,218.400 271.251,218.400 271.377 C 218.400 271.629,220.296 273.856,221.108 274.560 C 223.334 276.487,224.000 277.181,224.000 277.575 C 224.000 278.041,224.561 278.719,227.500 281.798 C 228.435 282.777,229.200 283.743,229.200 283.943 C 229.200 284.287,230.970 286.230,237.000 292.505 C 238.430 293.993,239.600 295.394,239.600 295.618 C 239.600 295.843,240.185 296.650,240.900 297.411 C 244.195 300.920,244.706 301.503,245.089 302.188 C 245.558 303.025,249.041 306.888,252.700 310.629 C 254.075 312.035,255.200 313.340,255.200 313.529 C 255.200 313.718,255.979 314.697,256.931 315.705 C 257.882 316.712,259.187 318.219,259.831 319.052 C 261.455 321.156,264.460 324.491,265.300 325.121 C 265.685 325.409,266.000 325.825,266.000 326.045 C 266.000 326.265,267.080 327.504,268.400 328.800 C 269.720 330.096,270.800 331.327,270.800 331.537 C 270.800 331.747,271.655 332.792,272.700 333.860 C 273.745 334.927,275.446 336.880,276.479 338.200 C 277.513 339.520,279.088 341.285,279.979 342.123 C 280.871 342.960,281.600 343.825,281.600 344.045 C 281.600 344.264,282.680 345.504,284.000 346.800 C 285.320 348.096,286.400 349.346,286.400 349.578 C 286.400 349.810,286.580 350.000,286.800 350.000 C 287.020 350.000,287.200 350.190,287.200 350.422 C 287.200 350.654,288.280 351.904,289.600 353.200 C 290.920 354.496,292.000 355.721,292.000 355.923 C 292.000 356.125,293.170 357.489,294.600 358.955 C 296.030 360.421,297.200 361.780,297.200 361.975 C 297.200 362.170,298.239 363.385,299.508 364.675 C 300.778 365.964,302.258 367.645,302.797 368.410 C 303.337 369.174,304.638 370.643,305.689 371.674 C 306.740 372.705,307.600 373.656,307.600 373.788 C 307.600 374.049,308.148 374.678,311.201 377.927 C 312.300 379.096,313.200 380.220,313.200 380.423 C 313.200 381.103,323.080 390.681,324.751 391.620 C 325.658 392.130,326.400 392.694,326.400 392.874 C 326.400 393.053,326.670 393.200,327.000 393.200 C 327.330 393.200,327.600 393.380,327.600 393.600 C 327.600 393.820,327.920 394.000,328.312 394.000 C 328.703 394.000,329.283 394.360,329.600 394.800 C 329.917 395.240,330.486 395.600,330.865 395.600 C 331.243 395.600,331.664 395.780,331.800 396.000 C 331.936 396.220,332.397 396.400,332.824 396.400 C 333.251 396.400,333.600 396.580,333.600 396.800 C 333.600 397.020,334.050 397.200,334.600 397.200 C 335.150 397.200,335.600 397.380,335.600 397.600 C 335.600 397.820,336.140 398.000,336.800 398.000 C 337.460 398.000,338.000 398.180,338.000 398.400 C 338.000 398.620,338.525 398.800,339.167 398.800 C 339.808 398.800,340.408 399.025,340.500 399.300 C 340.743 400.027,364.858 400.027,365.100 399.300 C 365.192 399.025,365.792 398.800,366.433 398.800 C 367.075 398.800,367.600 398.620,367.600 398.400 C 367.600 398.180,368.052 398.000,368.605 398.000 C 369.158 398.000,369.923 397.840,370.305 397.644 C 370.687 397.448,371.900 396.863,373.000 396.344 C 374.100 395.825,375.060 395.265,375.133 395.100 C 375.207 394.935,375.529 394.800,375.850 394.800 C 376.171 394.800,376.820 394.440,377.292 394.000 C 377.764 393.560,378.387 393.200,378.675 393.200 C 378.964 393.200,379.200 393.020,379.200 392.800 C 379.200 392.580,379.483 392.400,379.829 392.400 C 380.174 392.400,380.694 392.175,380.984 391.900 C 381.274 391.625,382.026 391.046,382.656 390.614 C 383.991 389.696,388.949 384.728,390.400 382.853 C 390.950 382.142,391.625 381.313,391.900 381.009 C 392.175 380.705,392.400 380.174,392.400 379.829 C 392.400 379.483,392.580 379.200,392.800 379.200 C 393.020 379.200,393.200 378.964,393.200 378.675 C 393.200 378.387,393.560 377.764,394.000 377.292 C 394.440 376.820,394.800 376.171,394.800 375.850 C 394.800 375.529,394.935 375.207,395.100 375.133 C 395.653 374.887,398.000 369.898,398.000 368.967 C 398.000 368.461,398.180 367.936,398.400 367.800 C 398.620 367.664,398.800 367.038,398.800 366.410 C 398.800 365.781,399.025 365.192,399.300 365.100 C 399.685 364.972,399.800 362.231,399.800 353.200 C 399.800 344.170,399.685 341.429,399.300 341.300 C 399.014 341.205,398.800 340.464,398.800 339.567 C 398.800 338.705,398.620 338.000,398.400 338.000 C 398.180 338.000,398.000 337.640,398.000 337.200 C 398.000 336.760,397.820 336.400,397.600 336.400 C 397.380 336.400,397.200 335.860,397.200 335.200 C 397.200 334.540,397.020 334.000,396.800 334.000 C 396.580 334.000,396.400 333.640,396.400 333.200 C 396.400 332.760,396.220 332.400,396.000 332.400 C 395.780 332.400,395.600 332.040,395.600 331.600 C 395.600 331.160,395.420 330.800,395.200 330.800 C 394.980 330.800,394.800 330.440,394.800 330.000 C 394.800 329.560,394.620 329.200,394.400 329.200 C 394.180 329.200,394.000 328.930,394.000 328.600 C 394.000 328.270,393.820 328.000,393.600 328.000 C 393.380 328.000,393.200 327.730,393.200 327.400 C 393.200 327.070,393.059 326.800,392.886 326.800 C 392.714 326.800,392.228 326.215,391.806 325.500 C 391.385 324.785,390.716 323.851,390.320 323.425 C 389.924 322.998,389.600 322.495,389.600 322.307 C 389.600 321.861,383.271 315.600,382.820 315.600 C 382.629 315.600,381.168 314.340,379.572 312.800 C 377.976 311.260,376.533 310.000,376.365 310.000 C 376.197 310.000,375.191 309.143,374.130 308.095 C 373.068 307.047,371.570 305.747,370.800 305.205 C 370.030 304.663,368.375 303.180,367.122 301.910 C 365.869 300.639,364.675 299.600,364.469 299.600 C 364.262 299.600,362.888 298.430,361.415 297.000 C 359.942 295.570,358.616 294.397,358.469 294.392 C 358.321 294.388,356.865 293.128,355.234 291.592 C 353.603 290.057,352.119 288.800,351.937 288.800 C 351.755 288.800,350.152 287.360,348.376 285.600 C 346.599 283.840,344.973 282.400,344.762 282.400 C 344.551 282.400,343.597 281.635,342.641 280.700 C 341.685 279.765,340.042 278.280,338.990 277.400 C 337.938 276.520,336.480 275.215,335.752 274.500 C 335.023 273.785,334.254 273.200,334.044 273.200 C 333.833 273.200,332.386 271.940,330.828 270.400 C 329.269 268.860,327.820 267.600,327.606 267.600 C 327.393 267.600,326.075 266.475,324.677 265.100 C 323.279 263.725,321.107 261.714,319.849 260.631 C 318.592 259.548,317.077 258.243,316.482 257.731 C 315.887 257.220,315.262 256.801,315.093 256.800 C 314.924 256.800,313.636 255.675,312.231 254.300 C 308.682 250.827,304.019 246.631,303.501 246.445 C 303.263 246.359,302.316 245.549,301.397 244.645 C 299.042 242.327,297.661 241.200,297.178 241.200 C 296.949 241.200,295.519 239.940,294.000 238.400 C 292.481 236.860,291.144 235.600,291.029 235.600 C 290.914 235.600,289.621 234.430,288.155 233.000 C 286.689 231.570,285.347 230.400,285.172 230.400 C 284.997 230.400,283.966 229.545,282.882 228.500 C 280.126 225.844,278.859 224.800,278.392 224.800 C 278.170 224.800,276.835 223.675,275.425 222.300 C 270.701 217.694,268.172 215.377,266.809 214.407 C 266.066 213.877,264.490 212.507,263.307 211.362 C 262.125 210.216,260.627 209.060,259.979 208.791 C 259.330 208.523,258.800 208.151,258.800 207.965 C 258.800 207.455,254.735 203.600,254.198 203.600 C 254.092 203.600,252.731 202.340,251.172 200.800 C 249.614 199.260,248.161 198.000,247.943 198.000 C 247.726 198.000,246.705 197.139,245.674 196.088 C 244.643 195.036,243.083 193.641,242.207 192.988 C 241.331 192.334,239.871 191.080,238.962 190.200 C 237.027 188.327,235.679 187.200,235.373 187.200 C 235.254 187.200,234.096 186.120,232.800 184.800 C 231.504 183.480,230.270 182.400,230.057 182.400 C 229.844 182.400,228.606 181.352,227.306 180.072 C 226.005 178.792,224.579 177.487,224.137 177.172 C 223.695 176.857,222.737 176.095,222.009 175.478 L 220.686 174.356 221.877 173.078 C 223.341 171.508,225.200 167.694,225.200 166.260 C 225.200 165.677,225.380 165.200,225.600 165.200 C 225.822 165.200,226.000 164.133,226.000 162.800 C 226.000 161.467,226.178 160.400,226.400 160.400 C 226.620 160.400,226.800 159.601,226.800 158.624 C 226.800 157.647,226.620 156.736,226.400 156.600 C 226.180 156.464,226.000 155.193,226.000 153.776 C 226.000 152.325,225.825 151.200,225.600 151.200 C 225.380 151.200,225.200 150.745,225.200 150.189 C 225.200 147.575,217.952 138.000,215.974 138.000 C 213.816 138.000,214.402 136.789,218.579 132.612 C 222.385 128.805,224.000 127.670,224.000 128.800 C 224.000 129.340,236.666 129.340,237.000 128.800 C 237.136 128.580,237.777 128.400,238.424 128.400 C 239.071 128.400,239.600 128.220,239.600 128.000 C 239.600 127.780,240.129 127.600,240.776 127.600 C 241.423 127.600,242.064 127.420,242.200 127.200 C 242.336 126.980,242.797 126.800,243.224 126.800 C 243.651 126.800,244.000 126.620,244.000 126.400 C 244.000 126.180,244.360 126.000,244.800 126.000 C 245.240 126.000,245.600 125.823,245.600 125.608 C 245.600 125.392,246.087 125.093,246.682 124.944 C 247.277 124.794,248.186 124.251,248.700 123.736 C 249.215 123.221,249.813 122.800,250.028 122.800 C 250.467 122.800,255.600 117.648,255.600 117.207 C 255.600 117.052,256.050 116.401,256.600 115.762 C 257.149 115.123,257.599 114.375,257.600 114.100 C 257.600 113.825,257.780 113.600,258.000 113.600 C 258.220 113.600,258.401 113.285,258.402 112.900 C 258.404 112.515,258.674 111.684,259.002 111.054 C 259.331 110.424,259.600 109.659,259.600 109.354 C 259.600 109.049,259.780 108.800,260.000 108.800 C 260.220 108.800,260.400 108.260,260.400 107.600 C 260.400 106.940,260.580 106.400,260.800 106.400 C 261.020 106.400,261.200 105.500,261.200 104.400 C 261.200 103.300,261.380 102.400,261.600 102.400 C 261.844 102.400,262.000 100.533,262.000 97.600 C 262.000 94.667,261.844 92.800,261.600 92.800 C 261.380 92.800,261.200 91.900,261.200 90.800 C 261.200 89.700,261.020 88.800,260.800 88.800 C 260.580 88.800,260.400 88.260,260.400 87.600 C 260.400 86.940,260.220 86.400,260.000 86.400 C 259.780 86.400,259.600 85.860,259.600 85.200 C 259.600 84.540,259.420 84.000,259.200 84.000 C 258.980 84.000,258.800 83.653,258.800 83.229 C 258.800 82.804,258.575 82.216,258.300 81.921 C 258.025 81.627,257.453 80.759,257.029 79.993 C 256.605 79.227,255.525 77.734,254.629 76.676 C 252.362 73.999,186.820 8.400,186.412 8.400 C 186.230 8.400,185.162 7.500,184.039 6.400 C 182.915 5.300,181.727 4.400,181.398 4.400 C 181.069 4.400,180.800 4.220,180.800 4.000 C 180.800 3.780,180.440 3.600,180.000 3.600 C 179.560 3.600,179.200 3.420,179.200 3.200 C 179.200 2.980,178.840 2.800,178.400 2.800 C 177.960 2.800,177.600 2.620,177.600 2.400 C 177.600 2.180,177.240 2.000,176.800 2.000 C 176.360 2.000,176.000 1.820,176.000 1.600 C 176.000 1.380,175.475 1.200,174.833 1.200 C 174.192 1.200,173.592 0.975,173.500 0.700 C 173.331 0.193,158.547 -0.165,155.800 0.271 M168.112 16.189 C 172.511 17.524,169.664 14.878,209.111 54.288 C 239.904 85.053,242.933 88.195,244.007 90.490 C 250.605 104.590,236.590 118.231,222.631 111.295 C 219.816 109.896,151.364 41.444,150.137 38.800 C 148.541 35.363,148.400 34.743,148.400 31.172 C 148.400 20.862,158.418 13.247,168.112 16.189 M175.500 86.644 C 193.375 104.502,208.000 119.348,208.000 119.636 C 208.000 120.332,120.356 207.985,119.652 207.994 C 118.453 208.008,53.111 142.112,53.548 141.328 C 55.031 138.669,141.597 53.097,142.277 53.619 C 142.675 53.925,157.625 68.786,175.500 86.644 M137.978 80.355 C 134.177 82.824,102.109 115.622,101.599 117.564 C 99.792 124.433,107.396 129.793,113.000 125.601 C 115.699 123.582,147.026 91.921,148.028 90.200 C 151.897 83.554,144.384 76.195,137.978 80.355 M83.249 135.268 C 80.807 136.476,79.200 139.070,79.200 141.800 C 79.200 147.225,85.191 150.908,89.762 148.293 C 98.178 143.479,91.925 130.973,83.249 135.268 M35.881 148.851 C 40.135 150.563,40.613 151.010,75.457 185.831 C 99.079 209.437,110.597 221.218,111.192 222.384 C 118.352 236.419,104.743 250.677,90.534 244.028 C 87.111 242.426,19.789 175.397,17.484 171.297 C 13.161 163.604,16.641 153.416,24.897 149.595 C 27.659 148.317,33.563 147.917,35.881 148.851 M206.685 151.788 C 210.138 154.113,211.253 157.932,209.542 161.574 C 208.523 163.743,165.834 206.838,162.707 208.854 C 155.823 213.292,147.389 205.696,151.536 198.792 C 152.598 197.023,196.508 153.017,198.441 151.784 C 200.882 150.226,204.368 150.228,206.685 151.788 M210.073 186.897 C 210.367 187.174,211.866 188.477,213.404 189.794 C 214.942 191.111,216.290 192.281,216.400 192.395 C 216.510 192.508,217.950 193.770,219.600 195.200 C 221.250 196.630,222.690 197.890,222.800 198.000 C 222.910 198.110,224.350 199.370,226.000 200.800 C 227.650 202.230,229.090 203.492,229.200 203.605 C 229.310 203.719,230.660 204.889,232.200 206.206 C 233.740 207.523,235.090 208.690,235.200 208.800 C 235.310 208.911,236.750 210.170,238.400 211.600 C 240.050 213.030,241.490 214.290,241.600 214.400 C 241.710 214.510,243.150 215.770,244.800 217.200 C 246.450 218.630,247.890 219.892,248.000 220.005 C 248.110 220.119,249.460 221.289,251.000 222.606 C 252.540 223.923,253.890 225.090,254.000 225.200 C 254.110 225.311,255.548 226.571,257.197 228.000 C 258.845 229.430,260.825 231.161,261.597 231.846 C 262.368 232.532,266.060 235.755,269.800 239.009 C 273.540 242.263,277.770 245.950,279.200 247.203 C 280.630 248.456,284.860 252.146,288.600 255.403 C 292.340 258.660,296.659 262.422,298.198 263.763 C 299.737 265.103,301.897 267.049,302.998 268.086 L 305.000 269.973 287.602 287.386 C 278.033 296.964,270.004 304.800,269.760 304.800 C 269.516 304.800,267.182 302.325,264.573 299.300 C 261.964 296.275,259.727 293.710,259.601 293.600 C 259.476 293.490,257.043 290.700,254.195 287.400 C 251.347 284.100,248.919 281.310,248.799 281.200 C 248.678 281.090,246.879 279.020,244.800 276.600 C 242.721 274.180,240.918 272.110,240.793 272.000 C 240.669 271.890,238.779 269.730,236.594 267.200 C 234.409 264.670,232.436 262.400,232.211 262.156 C 231.985 261.911,231.350 261.189,230.800 260.551 C 227.249 256.429,221.799 250.168,221.617 250.000 C 221.497 249.890,220.312 248.540,218.982 247.000 C 216.029 243.578,206.471 232.577,202.622 228.168 C 201.070 226.391,199.350 224.409,198.800 223.765 C 197.824 222.622,190.131 213.789,188.030 211.400 C 187.450 210.740,186.664 209.753,186.284 209.206 L 185.593 208.212 196.869 196.931 C 208.661 185.134,208.403 185.330,210.073 186.897 M317.646 280.917 C 318.001 281.188,319.531 282.505,321.046 283.845 C 322.561 285.185,324.790 287.147,326.000 288.206 C 327.210 289.264,328.250 290.251,328.311 290.397 C 328.443 290.717,290.823 328.400,290.371 328.400 C 290.198 328.400,288.381 326.465,286.333 324.100 C 284.286 321.735,282.114 319.260,281.507 318.600 C 280.900 317.940,280.403 317.229,280.402 317.019 C 280.400 316.634,316.429 280.405,316.800 280.418 C 316.910 280.422,317.291 280.647,317.646 280.917 M347.658 306.858 C 351.476 310.190,355.770 313.943,357.200 315.199 C 358.630 316.455,363.422 320.651,367.850 324.525 C 378.651 333.974,381.864 338.408,383.601 346.264 C 384.424 349.987,384.658 356.226,384.050 358.240 C 383.857 358.878,383.477 360.390,383.204 361.600 C 380.421 373.955,366.568 384.400,352.965 384.400 C 341.582 384.400,335.547 380.896,323.965 367.561 C 321.234 364.418,318.190 360.923,317.200 359.795 C 316.210 358.668,314.946 357.217,314.392 356.572 C 313.838 355.928,311.678 353.445,309.592 351.056 C 307.506 348.667,304.681 345.427,303.313 343.856 C 301.946 342.285,300.821 340.821,300.813 340.602 C 300.799 340.176,340.019 300.800,340.456 300.800 C 340.599 300.800,343.839 303.526,347.658 306.858 M36.400 306.400 C 36.400 306.620,35.781 306.800,35.024 306.800 C 34.267 306.800,33.536 306.980,33.400 307.200 C 33.264 307.420,32.803 307.600,32.376 307.600 C 31.949 307.600,31.600 307.780,31.600 308.000 C 31.600 308.220,31.312 308.400,30.960 308.400 C 29.911 308.400,27.507 309.656,25.800 311.096 C 23.021 313.441,21.600 314.854,21.600 315.273 C 21.600 315.496,21.060 316.183,20.400 316.800 C 19.740 317.417,19.200 318.209,19.200 318.560 C 19.200 318.912,19.020 319.200,18.800 319.200 C 18.580 319.200,18.400 319.560,18.400 320.000 C 18.400 320.440,18.220 320.800,18.000 320.800 C 17.780 320.800,17.600 321.160,17.600 321.600 C 17.600 322.040,17.464 322.400,17.297 322.400 C 16.966 322.400,16.000 325.224,16.000 326.194 C 16.000 326.527,15.820 326.800,15.600 326.800 C 15.059 326.800,15.059 339.866,15.600 340.200 C 15.820 340.336,16.000 341.067,16.000 341.824 C 16.000 342.581,16.180 343.200,16.400 343.200 C 16.620 343.200,16.800 343.560,16.800 344.000 C 16.800 344.440,16.957 344.800,17.150 344.800 C 17.343 344.800,17.604 345.318,17.730 345.952 C 17.857 346.585,18.240 347.382,18.580 347.723 C 19.637 348.780,18.368 351.200,16.757 351.200 C 16.517 351.200,15.817 351.740,15.200 352.400 C 14.583 353.060,13.899 353.600,13.680 353.600 C 13.077 353.600,7.600 359.273,7.600 359.897 C 7.600 360.077,7.240 360.483,6.800 360.800 C 6.360 361.117,6.000 361.657,6.000 362.000 C 6.000 362.343,5.640 362.883,5.200 363.200 C 4.760 363.517,4.400 364.097,4.400 364.488 C 4.400 364.880,4.220 365.200,4.000 365.200 C 3.780 365.200,3.600 365.560,3.600 366.000 C 3.600 366.440,3.420 366.800,3.200 366.800 C 2.980 366.800,2.800 367.160,2.800 367.600 C 2.800 368.040,2.620 368.400,2.400 368.400 C 2.180 368.400,2.000 368.940,2.000 369.600 C 2.000 370.260,1.820 370.800,1.600 370.800 C 1.380 370.800,1.200 371.325,1.200 371.967 C 1.200 372.608,0.975 373.208,0.700 373.300 C 0.320 373.427,0.166 376.211,0.059 384.903 L -0.081 396.340 1.749 398.170 L 3.579 400.000 109.373 400.000 L 215.166 400.000 216.726 398.500 C 217.584 397.675,218.491 396.607,218.743 396.126 C 219.332 395.000,219.385 376.961,218.800 376.600 C 218.580 376.464,218.400 375.643,218.400 374.776 C 218.400 373.909,218.220 373.200,218.000 373.200 C 217.780 373.200,217.600 372.660,217.600 372.000 C 217.600 371.340,217.420 370.800,217.200 370.800 C 216.980 370.800,216.800 370.260,216.800 369.600 C 216.800 368.940,216.620 368.400,216.400 368.400 C 216.180 368.400,216.000 368.040,216.000 367.600 C 216.000 367.160,215.820 366.800,215.600 366.800 C 215.380 366.800,215.200 366.440,215.200 366.000 C 215.200 365.560,215.020 365.200,214.800 365.200 C 214.580 365.200,214.400 364.880,214.400 364.488 C 214.400 364.097,214.040 363.517,213.600 363.200 C 213.160 362.883,212.800 362.438,212.800 362.212 C 212.799 361.985,212.343 361.260,211.786 360.600 C 211.230 359.940,210.105 358.606,209.287 357.635 C 207.288 355.262,205.564 353.600,205.101 353.600 C 204.892 353.600,204.217 353.060,203.600 352.400 C 202.983 351.740,202.283 351.200,202.043 351.200 C 200.262 351.200,199.195 348.802,200.400 347.508 C 200.840 347.036,201.200 346.233,201.200 345.725 C 201.200 345.216,201.380 344.800,201.600 344.800 C 201.820 344.800,202.000 344.440,202.000 344.000 C 202.000 343.560,202.180 343.200,202.400 343.200 C 202.620 343.200,202.800 342.581,202.800 341.824 C 202.800 341.067,202.980 340.336,203.200 340.200 C 203.439 340.052,203.600 337.404,203.600 333.600 C 203.600 329.796,203.439 327.148,203.200 327.000 C 202.980 326.864,202.800 326.324,202.800 325.800 C 202.800 325.276,202.620 324.736,202.400 324.600 C 202.180 324.464,202.000 323.913,202.000 323.376 C 202.000 322.839,201.820 322.400,201.600 322.400 C 201.380 322.400,201.200 322.040,201.200 321.600 C 201.200 321.160,201.020 320.800,200.800 320.800 C 200.580 320.800,200.400 320.440,200.400 320.000 C 200.400 319.560,200.220 319.200,200.000 319.200 C 199.780 319.200,199.600 318.912,199.600 318.560 C 199.600 318.209,199.060 317.417,198.400 316.800 C 197.740 316.183,197.200 315.508,197.200 315.299 C 197.200 314.793,194.897 312.400,194.410 312.400 C 194.199 312.400,193.434 311.815,192.711 311.100 C 191.376 309.782,188.856 308.400,187.786 308.400 C 187.464 308.400,187.200 308.220,187.200 308.000 C 187.200 307.780,186.761 307.600,186.224 307.600 C 185.687 307.600,185.136 307.420,185.000 307.200 C 184.864 306.980,184.223 306.800,183.576 306.800 C 182.929 306.800,182.400 306.620,182.400 306.400 C 182.400 306.135,157.800 306.000,109.400 306.000 C 61.000 306.000,36.400 306.135,36.400 306.400 M180.668 322.971 C 189.915 327.276,189.793 339.965,180.462 344.339 L 178.200 345.400 109.400 345.400 L 40.600 345.400 38.341 344.341 C 28.972 339.948,28.849 327.293,38.134 322.970 L 40.200 322.008 109.400 322.008 L 178.600 322.008 180.668 322.971 M186.000 361.718 C 195.772 364.909,203.086 374.009,203.186 383.100 L 203.200 384.400 109.400 384.400 L 15.600 384.400 15.614 383.100 C 15.728 372.749,24.765 362.984,36.000 361.073 C 39.828 360.422,183.928 361.042,186.000 361.718 " stroke="none" fill="#040404" fill-rule="evenodd"></path><path id="path3" d="M298.500 298.524 C 288.545 308.487,280.401 316.809,280.402 317.019 C 280.403 317.229,280.900 317.940,281.507 318.600 C 282.114 319.260,284.286 321.735,286.333 324.100 C 288.381 326.465,290.198 328.400,290.371 328.400 C 290.823 328.400,328.443 290.717,328.311 290.397 C 328.250 290.251,327.210 289.264,326.000 288.206 C 324.790 287.147,322.561 285.185,321.046 283.845 C 318.027 281.175,317.103 280.429,316.800 280.418 C 316.690 280.414,308.455 288.562,298.500 298.524 " stroke="none" fill="#555459" fill-rule="evenodd"></path><path id="path4" d="M159.800 16.097 C 152.521 18.593,148.400 24.043,148.400 31.172 C 148.400 34.743,148.541 35.363,150.137 38.800 C 151.364 41.444,219.816 109.896,222.631 111.295 C 236.590 118.231,250.605 104.590,244.007 90.490 C 242.424 87.107,175.354 19.764,171.297 17.484 C 168.194 15.740,162.754 15.084,159.800 16.097 M166.626 16.549 C 171.653 17.628,170.698 16.763,207.867 53.949 C 227.080 73.172,242.800 89.147,242.800 89.449 C 242.800 89.752,242.935 90.001,243.100 90.003 C 243.501 90.007,244.400 91.981,244.400 92.856 C 244.400 93.239,244.580 93.664,244.800 93.800 C 245.352 94.141,245.304 99.824,244.735 101.572 C 243.921 104.073,243.413 105.200,243.102 105.200 C 242.936 105.200,242.800 105.378,242.800 105.595 C 242.800 106.681,239.642 109.662,237.314 110.774 C 236.261 111.276,235.087 111.848,234.705 112.044 C 233.035 112.900,224.648 112.264,223.600 111.201 C 223.490 111.090,222.860 110.729,222.200 110.399 C 220.679 109.640,152.901 41.968,151.452 39.763 C 149.203 36.338,147.763 28.688,149.200 27.800 C 149.420 27.664,149.600 27.141,149.600 26.638 C 149.600 23.151,155.651 17.721,160.800 16.588 C 163.716 15.947,163.817 15.946,166.626 16.549 M136.230 58.484 L 131.000 63.768 136.274 58.644 C 139.664 55.351,141.723 53.629,142.036 53.822 C 142.347 54.015,142.420 53.957,142.238 53.662 C 141.771 52.907,141.671 52.987,136.230 58.484 M143.251 54.685 C 143.923 55.524,145.901 57.458,147.449 58.790 C 148.082 59.334,147.345 58.479,145.811 56.890 C 143.161 54.144,142.054 53.191,143.251 54.685 M151.691 63.137 C 152.241 63.947,154.008 65.469,153.996 65.123 C 153.993 65.055,153.331 64.370,152.523 63.600 C 151.611 62.731,151.296 62.555,151.691 63.137 M122.200 72.400 C 117.584 77.020,113.897 80.800,114.007 80.800 C 114.117 80.800,117.984 77.020,122.600 72.400 C 127.216 67.780,130.903 64.000,130.793 64.000 C 130.683 64.000,126.816 67.780,122.200 72.400 M154.000 65.773 C 154.000 65.868,154.585 66.343,155.300 66.829 L 156.600 67.712 155.517 66.656 C 154.501 65.664,154.000 65.373,154.000 65.773 M160.030 71.458 C 161.467 73.026,162.548 74.083,163.842 75.190 C 164.479 75.734,163.745 74.879,162.211 73.290 C 159.565 70.548,157.963 69.202,160.030 71.458 M141.105 79.083 C 141.602 79.179,142.322 79.175,142.705 79.075 C 143.087 78.975,142.680 78.896,141.800 78.901 C 140.920 78.905,140.607 78.987,141.105 79.083 M137.593 80.147 C 136.327 81.007,105.535 111.557,103.215 114.255 C 102.673 114.885,110.053 107.630,119.615 98.133 C 129.177 88.637,137.630 80.492,138.400 80.035 C 139.170 79.577,139.617 79.202,139.393 79.201 C 139.169 79.201,138.359 79.626,137.593 80.147 M144.600 79.673 C 145.040 79.920,145.895 80.467,146.500 80.888 C 147.105 81.310,147.600 81.559,147.600 81.442 C 147.600 81.121,144.674 79.198,144.207 79.212 C 143.983 79.219,144.160 79.426,144.600 79.673 M105.396 89.300 L 97.400 97.400 105.500 89.404 C 113.026 81.974,113.781 81.200,113.496 81.200 C 113.439 81.200,109.794 84.845,105.396 89.300 M176.844 88.253 C 177.680 89.260,179.810 91.351,180.647 91.985 C 181.061 92.299,180.326 91.440,179.013 90.078 C 176.770 87.750,175.633 86.793,176.844 88.253 M148.413 89.631 C 147.853 91.046,116.882 122.592,113.840 124.845 C 112.982 125.480,112.527 126.000,112.829 126.000 C 114.386 126.000,149.503 89.910,149.106 88.717 C 149.022 88.467,148.710 88.878,148.413 89.631 M88.996 105.700 L 81.000 113.800 89.100 105.804 C 96.626 98.374,97.381 97.600,97.096 97.600 C 97.039 97.600,93.394 101.245,88.996 105.700 M193.251 104.685 C 193.923 105.524,195.901 107.458,197.449 108.790 C 198.082 109.334,197.345 108.479,195.811 106.890 C 193.161 104.144,192.054 103.191,193.251 104.685 M72.200 122.400 C 67.584 127.020,63.897 130.800,64.007 130.800 C 64.117 130.800,67.984 127.020,72.600 122.400 C 77.216 117.780,80.903 114.000,80.793 114.000 C 80.683 114.000,76.816 117.780,72.200 122.400 M100.986 118.536 C 100.729 119.906,101.353 123.000,101.962 123.376 C 102.149 123.492,102.039 122.825,101.717 121.893 C 101.368 120.883,101.229 119.595,101.371 118.700 C 101.666 116.842,101.330 116.700,100.986 118.536 M207.646 119.420 C 207.621 119.871,207.421 120.457,207.201 120.721 C 206.982 120.986,207.090 120.953,207.440 120.649 C 207.790 120.344,207.990 119.758,207.885 119.347 C 207.712 118.674,207.688 118.681,207.646 119.420 M103.288 125.013 C 103.886 125.643,104.447 126.077,104.535 125.979 C 104.623 125.880,104.133 125.365,103.447 124.834 L 102.200 123.869 103.288 125.013 M196.996 130.900 L 190.200 137.800 197.100 131.004 C 200.895 127.267,204.000 124.162,204.000 124.104 C 204.000 123.819,203.309 124.490,196.996 130.900 M105.600 126.800 C 105.930 127.013,106.470 127.188,106.800 127.188 C 107.333 127.188,107.333 127.145,106.800 126.800 C 106.470 126.587,105.930 126.412,105.600 126.412 C 105.067 126.412,105.067 126.455,105.600 126.800 M110.400 126.800 C 109.867 127.145,109.867 127.188,110.400 127.188 C 110.730 127.188,111.270 127.013,111.600 126.800 C 112.133 126.455,112.133 126.412,111.600 126.412 C 111.270 126.412,110.730 126.587,110.400 126.800 M58.241 136.374 C 53.925 140.736,52.712 142.400,53.847 142.400 C 53.957 142.400,53.929 142.208,53.784 141.974 C 53.639 141.740,55.825 139.220,58.641 136.374 C 61.457 133.528,63.670 131.200,63.560 131.200 C 63.450 131.200,61.057 133.528,58.241 136.374 M82.334 135.387 C 81.008 136.287,79.200 138.618,79.200 139.426 C 79.200 139.608,79.717 138.942,80.349 137.946 C 81.095 136.769,82.110 135.831,83.249 135.268 C 84.212 134.791,84.727 134.400,84.393 134.400 C 84.059 134.400,83.132 134.844,82.334 135.387 M91.949 136.600 C 92.165 137.040,92.634 137.760,92.993 138.200 L 93.644 139.000 93.251 138.200 C 93.035 137.760,92.566 137.040,92.207 136.600 L 91.556 135.800 91.949 136.600 M93.700 141.800 C 93.701 143.798,93.758 143.997,94.040 142.987 C 94.225 142.320,94.225 141.240,94.038 140.587 C 93.758 139.608,93.699 139.820,93.700 141.800 M78.901 141.800 C 78.905 142.680,78.987 142.993,79.083 142.495 C 79.179 141.998,79.175 141.278,79.075 140.895 C 78.975 140.513,78.896 140.920,78.901 141.800 M180.594 147.300 L 175.400 152.600 180.700 147.406 C 183.615 144.549,186.000 142.164,186.000 142.106 C 186.000 141.819,185.419 142.377,180.594 147.300 M56.589 145.523 C 58.123 147.105,59.460 148.400,59.559 148.400 C 59.904 148.400,55.758 144.085,54.585 143.223 C 54.153 142.906,55.055 143.941,56.589 145.523 M79.212 144.207 C 79.198 144.674,81.121 147.600,81.442 147.600 C 81.559 147.600,81.310 147.105,80.888 146.500 C 80.467 145.895,79.920 145.040,79.673 144.600 C 79.426 144.160,79.219 143.983,79.212 144.207 M92.284 146.199 C 91.670 146.968,90.500 147.950,89.684 148.381 C 88.868 148.812,88.442 149.173,88.738 149.182 C 89.774 149.216,92.235 147.195,93.221 145.500 C 93.857 144.407,93.503 144.671,92.284 146.199 M24.897 149.595 C 16.641 153.416,13.161 163.604,17.484 171.297 C 19.789 175.397,87.111 242.426,90.534 244.028 C 104.743 250.677,118.352 236.419,111.192 222.384 C 109.871 219.795,41.214 151.287,38.800 150.149 C 35.393 148.544,34.751 148.400,31.081 148.418 C 27.886 148.434,27.070 148.590,24.897 149.595 M35.969 149.589 C 37.155 150.022,38.863 150.864,39.763 151.459 C 41.983 152.926,109.644 220.688,110.399 222.200 C 110.729 222.860,111.090 223.490,111.201 223.600 C 112.264 224.648,112.900 233.035,112.044 234.705 C 111.848 235.087,111.276 236.261,110.774 237.314 C 109.662 239.642,106.681 242.800,105.595 242.800 C 105.378 242.800,105.200 242.980,105.200 243.200 C 105.200 243.420,104.840 243.600,104.400 243.600 C 103.960 243.600,103.600 243.760,103.600 243.955 C 103.600 244.799,94.646 245.606,93.871 244.831 C 93.634 244.594,93.026 244.400,92.520 244.400 C 92.014 244.400,91.600 244.220,91.600 244.000 C 91.600 243.780,91.240 243.600,90.800 243.600 C 90.360 243.600,90.000 243.420,90.000 243.200 C 90.000 242.980,89.752 242.800,89.449 242.800 C 88.410 242.800,19.097 173.130,18.060 171.043 C 11.982 158.816,23.492 145.028,35.969 149.589 M201.041 150.699 C 198.836 151.014,196.902 152.801,174.686 175.051 C 150.335 199.440,150.700 199.020,150.700 202.640 C 150.700 208.984,157.248 212.373,162.707 208.854 C 165.834 206.838,208.523 163.743,209.542 161.574 C 212.243 155.824,207.512 149.772,201.041 150.699 M63.600 152.523 C 64.370 153.331,65.055 153.993,65.123 153.996 C 65.469 154.008,63.947 152.241,63.137 151.691 C 62.555 151.296,62.731 151.611,63.600 152.523 M205.313 151.749 C 206.842 152.402,208.400 153.713,208.400 154.347 C 208.400 154.596,208.580 154.800,208.800 154.800 C 209.020 154.800,209.200 155.239,209.200 155.776 C 209.200 156.313,209.380 156.864,209.600 157.000 C 210.095 157.306,210.122 158.972,209.647 159.905 C 209.452 160.287,209.047 161.131,208.747 161.779 C 208.033 163.320,163.320 208.033,161.779 208.747 C 161.131 209.047,160.287 209.452,159.905 209.647 C 158.972 210.122,157.306 210.095,157.000 209.600 C 156.864 209.380,156.313 209.200,155.776 209.200 C 155.239 209.200,154.800 209.020,154.800 208.800 C 154.800 208.580,154.596 208.400,154.347 208.400 C 151.995 208.400,150.405 202.294,151.973 199.284 C 152.887 197.530,197.649 152.767,199.400 151.856 C 200.899 151.077,203.621 151.027,205.313 151.749 M65.600 154.217 C 65.600 154.337,66.075 154.922,66.656 155.517 L 67.712 156.600 66.829 155.300 C 65.994 154.072,65.600 153.725,65.600 154.217 M72.989 161.910 C 74.523 163.500,75.860 164.800,75.959 164.800 C 76.301 164.800,73.272 161.647,71.358 160.010 C 70.721 159.466,71.455 160.321,72.989 161.910 M163.800 164.000 C 161.167 166.640,159.103 168.800,159.213 168.800 C 159.323 168.800,161.567 166.640,164.200 164.000 C 166.833 161.360,168.897 159.200,168.787 159.200 C 168.677 159.200,166.433 161.360,163.800 164.000 M146.994 180.900 L 141.800 186.200 147.100 181.006 C 152.023 176.181,152.581 175.600,152.294 175.600 C 152.236 175.600,149.851 177.985,146.994 180.900 M89.787 178.722 C 91.101 180.085,92.248 181.200,92.336 181.200 C 92.717 181.200,89.527 177.856,88.153 176.815 C 87.739 176.501,88.474 177.360,89.787 178.722 M196.869 196.931 L 185.593 208.212 186.284 209.206 C 186.664 209.753,187.450 210.740,188.030 211.400 C 190.131 213.789,197.824 222.622,198.800 223.765 C 199.350 224.409,201.070 226.391,202.622 228.168 C 206.471 232.577,216.029 243.578,218.982 247.000 C 220.312 248.540,221.497 249.890,221.617 250.000 C 221.799 250.168,227.249 256.429,230.800 260.551 C 231.350 261.189,231.985 261.911,232.211 262.156 C 232.436 262.400,234.409 264.670,236.594 267.200 C 238.779 269.730,240.669 271.890,240.793 272.000 C 240.918 272.110,242.721 274.180,244.800 276.600 C 246.879 279.020,248.678 281.090,248.799 281.200 C 248.919 281.310,251.347 284.100,254.195 287.400 C 257.043 290.700,259.476 293.490,259.601 293.600 C 259.727 293.710,261.964 296.275,264.573 299.300 C 267.182 302.325,269.516 304.800,269.760 304.800 C 270.004 304.800,278.033 296.964,287.602 287.386 L 305.000 269.973 302.998 268.086 C 301.897 267.049,299.737 265.103,298.198 263.763 C 296.659 262.422,292.340 258.660,288.600 255.403 C 284.860 252.146,280.630 248.456,279.200 247.203 C 277.770 245.950,273.540 242.263,269.800 239.009 C 266.060 235.755,262.368 232.532,261.597 231.846 C 260.825 231.161,258.845 229.430,257.197 228.000 C 255.548 226.571,254.110 225.311,254.000 225.200 C 253.890 225.090,252.540 223.923,251.000 222.606 C 249.460 221.289,248.110 220.119,248.000 220.005 C 247.890 219.892,246.450 218.630,244.800 217.200 C 243.150 215.770,241.710 214.510,241.600 214.400 C 241.490 214.290,240.050 213.030,238.400 211.600 C 236.750 210.170,235.310 208.911,235.200 208.800 C 235.090 208.690,233.740 207.523,232.200 206.206 C 230.660 204.889,229.310 203.719,229.200 203.605 C 229.090 203.492,227.650 202.230,226.000 200.800 C 224.350 199.370,222.910 198.110,222.800 198.000 C 222.690 197.890,221.250 196.630,219.600 195.200 C 217.950 193.770,216.510 192.508,216.400 192.395 C 216.290 192.281,214.942 191.111,213.404 189.794 C 211.866 188.477,210.367 187.174,210.073 186.897 C 208.403 185.330,208.661 185.134,196.869 196.931 M210.657 188.127 C 211.726 189.077,213.213 190.382,213.963 191.027 C 214.712 191.672,216.242 193.032,217.363 194.049 C 218.483 195.066,220.030 196.413,220.800 197.041 C 221.570 197.670,222.470 198.464,222.800 198.806 C 223.130 199.148,224.660 200.484,226.200 201.775 C 229.279 204.356,233.635 208.150,234.955 209.401 C 235.420 209.841,236.970 211.191,238.399 212.401 C 239.829 213.610,241.269 214.871,241.599 215.203 C 241.930 215.535,244.090 217.425,246.400 219.403 C 248.710 221.381,250.803 223.180,251.050 223.400 C 251.298 223.620,252.808 224.970,254.406 226.400 C 256.004 227.830,257.691 229.262,258.156 229.581 C 258.620 229.901,259.450 230.621,260.001 231.181 C 260.551 231.742,262.261 233.277,263.801 234.594 C 265.340 235.911,266.690 237.086,266.800 237.205 C 266.910 237.324,268.170 238.406,269.599 239.610 C 271.029 240.815,272.469 242.072,272.799 242.405 C 273.130 242.737,274.570 243.995,276.000 245.200 C 277.430 246.405,278.870 247.663,279.200 247.995 C 279.530 248.328,281.060 249.677,282.600 250.994 C 284.140 252.311,285.490 253.486,285.600 253.605 C 285.710 253.724,286.963 254.806,288.385 256.010 C 289.806 257.215,291.349 258.560,291.813 259.000 C 292.277 259.440,293.617 260.610,294.791 261.600 C 295.964 262.590,297.414 263.850,298.011 264.400 C 298.608 264.950,299.619 265.850,300.257 266.400 C 300.895 266.950,302.080 267.972,302.891 268.672 L 304.364 269.944 287.092 287.206 L 269.820 304.469 269.010 303.482 C 267.621 301.790,263.856 297.532,262.600 296.233 C 261.940 295.550,260.590 294.010,259.600 292.810 C 258.610 291.610,257.232 289.992,256.537 289.214 C 255.842 288.436,253.415 285.640,251.145 283.000 C 248.874 280.360,246.561 277.750,246.006 277.200 C 245.451 276.650,244.517 275.570,243.929 274.800 C 243.341 274.030,242.172 272.652,241.330 271.737 C 240.489 270.822,239.455 269.652,239.033 269.137 C 237.805 267.637,230.690 259.481,229.806 258.560 C 229.363 258.098,228.640 257.268,228.200 256.716 C 227.760 256.164,226.410 254.576,225.200 253.187 C 218.989 246.058,214.173 240.553,213.809 240.166 C 213.584 239.928,212.651 238.848,211.735 237.766 C 210.079 235.811,209.138 234.715,207.472 232.797 C 204.532 229.415,201.343 225.755,201.000 225.371 C 200.451 224.756,195.970 219.673,195.065 218.639 C 194.661 218.178,193.587 216.924,192.677 215.854 C 191.768 214.784,190.416 213.254,189.673 212.454 C 188.929 211.654,187.861 210.406,187.298 209.680 L 186.274 208.360 197.237 197.384 C 203.267 191.347,208.316 186.406,208.457 186.404 C 208.598 186.402,209.588 187.177,210.657 188.127 M130.596 197.300 L 123.800 204.200 130.700 197.404 C 134.495 193.667,137.600 190.562,137.600 190.504 C 137.600 190.219,136.909 190.890,130.596 197.300 M106.589 195.523 C 108.123 197.105,109.460 198.400,109.559 198.400 C 109.904 198.400,105.758 194.085,104.585 193.223 C 104.153 192.906,105.055 193.941,106.589 195.523 M120.580 207.161 C 120.371 207.360,119.840 207.609,119.400 207.715 C 118.641 207.897,118.644 207.910,119.451 207.954 C 119.919 207.979,120.526 207.730,120.800 207.400 C 121.343 206.746,121.191 206.581,120.580 207.161 M320.498 320.502 C 309.664 331.337,300.806 340.382,300.813 340.602 C 300.821 340.821,301.946 342.285,303.313 343.856 C 304.681 345.427,307.506 348.667,309.592 351.056 C 311.678 353.445,313.838 355.928,314.392 356.572 C 314.946 357.217,316.210 358.668,317.200 359.795 C 318.190 360.923,321.234 364.418,323.965 367.561 C 335.547 380.896,341.582 384.400,352.965 384.400 C 366.568 384.400,380.421 373.955,383.204 361.600 C 383.477 360.390,383.857 358.878,384.050 358.240 C 384.658 356.226,384.424 349.987,383.601 346.264 C 381.864 338.408,378.651 333.974,367.850 324.525 C 363.422 320.651,358.630 316.455,357.200 315.199 C 346.802 306.067,340.677 300.800,340.456 300.800 C 340.314 300.800,331.333 309.666,320.498 320.502 M341.438 302.300 C 341.872 302.685,343.391 303.990,344.813 305.200 C 348.879 308.659,349.593 309.280,351.763 311.249 C 352.883 312.266,354.430 313.613,355.200 314.241 C 355.970 314.870,356.870 315.659,357.200 315.996 C 357.530 316.332,359.690 318.224,362.000 320.201 C 364.310 322.178,366.721 324.246,367.358 324.797 C 378.921 334.810,381.984 339.459,383.438 349.207 C 387.637 377.351,351.862 395.284,331.643 375.171 C 329.117 372.659,325.910 369.090,322.625 365.134 C 321.301 363.540,314.255 355.446,313.406 354.544 C 312.963 354.073,311.849 352.813,310.931 351.744 C 308.268 348.643,307.643 347.919,305.794 345.800 C 304.835 344.700,303.501 343.170,302.831 342.400 C 302.161 341.630,301.610 340.862,301.606 340.693 C 301.600 340.367,340.042 301.684,340.425 301.631 C 340.548 301.614,341.004 301.915,341.438 302.300 M38.134 322.970 C 28.849 327.293,28.972 339.948,38.341 344.341 L 40.600 345.400 109.400 345.400 L 178.200 345.400 180.462 344.339 C 189.793 339.965,189.915 327.276,180.668 322.971 L 178.600 322.008 109.400 322.008 L 40.200 322.008 38.134 322.970 M181.400 323.988 C 186.858 327.776,188.383 332.884,185.763 338.600 C 185.103 340.040,182.656 342.800,182.039 342.800 C 181.798 342.800,181.600 342.951,181.600 343.136 C 181.600 343.489,179.874 344.070,176.723 344.778 C 173.963 345.398,45.110 345.363,41.824 344.741 C 39.094 344.225,37.200 343.553,37.200 343.102 C 37.200 342.936,37.002 342.800,36.761 342.800 C 36.144 342.800,33.697 340.040,33.037 338.600 C 30.450 332.957,31.959 327.744,37.228 324.119 C 39.726 322.399,34.237 322.516,110.600 322.560 L 179.400 322.600 181.400 323.988 M36.000 361.073 C 24.765 362.984,15.728 372.749,15.614 383.100 L 15.600 384.400 109.400 384.400 L 203.200 384.400 203.186 383.100 C 203.086 374.009,195.772 364.909,186.000 361.718 C 183.928 361.042,39.828 360.422,36.000 361.073 M183.400 361.786 C 184.500 361.946,185.571 362.240,185.780 362.439 C 185.989 362.637,186.494 362.800,186.902 362.800 C 192.522 362.800,201.172 373.030,202.137 380.818 C 202.261 381.818,202.480 382.943,202.624 383.318 C 202.870 383.959,197.325 384.000,109.400 384.000 C 21.475 384.000,15.930 383.959,16.176 383.318 C 16.320 382.943,16.539 381.818,16.663 380.818 C 17.636 372.971,26.267 362.800,31.954 362.800 C 32.393 362.800,32.864 362.620,33.000 362.400 C 33.136 362.180,34.002 361.987,34.924 361.972 C 35.846 361.956,36.960 361.788,37.400 361.598 C 38.359 361.184,180.522 361.367,183.400 361.786 " stroke="none" fill="#6e4225" fill-rule="evenodd"></path></g></svg>