<svg width="33" height="25" viewBox="0 0 33 25" fill="none" xmlns="http://www.w3.org/2000/svg">
<path d="M25.1933 10.6133C24.8498 10.6158 24.52 10.7483 24.2703 10.9843C24.1462 11.102 24.0446 11.2412 23.9703 11.3953C23.9623 11.4113 23.9483 11.4223 23.9413 11.4393C23.8629 11.612 23.8223 11.7996 23.8223 11.9893C23.8223 12.179 23.8629 12.3665 23.9413 12.5393C23.9483 12.5553 23.9633 12.5663 23.9703 12.5833C24.0769 12.8037 24.2406 12.9914 24.4444 13.127C24.6482 13.2626 24.8846 13.3411 25.129 13.3543C25.3735 13.3675 25.617 13.3149 25.8342 13.202C26.0514 13.0891 26.2343 12.92 26.364 12.7124C26.4936 12.5047 26.5652 12.2661 26.5713 12.0214C26.5774 11.7767 26.5178 11.5348 26.3987 11.321C26.2795 11.1072 26.1052 10.9292 25.894 10.8056C25.6827 10.682 25.4421 10.6173 25.1973 10.6183L25.1933 10.6133Z" fill="#1ABF00"/>
<path d="M22.5721 12.7643C22.5581 12.7173 22.5401 12.6733 22.5291 12.6273C22.4759 12.418 22.4477 12.2032 22.4451 11.9873C22.4471 11.7713 22.4753 11.5564 22.5291 11.3473C22.5401 11.3003 22.5581 11.2563 22.5721 11.2103C22.6236 11.0434 22.6905 10.8817 22.7721 10.7273C22.7831 10.7063 22.7871 10.6833 22.7981 10.6623C22.6854 10.6295 22.5685 10.613 22.4511 10.6133C22.0872 10.6141 21.7385 10.759 21.4811 11.0163C21.2238 11.2736 21.0789 11.6224 21.0781 11.9863C21.0834 12.1944 21.1351 12.3987 21.2293 12.5843C21.3235 12.77 21.4579 12.9323 21.6228 13.0594C21.7877 13.1865 21.9788 13.2752 22.1823 13.3192C22.3858 13.3631 22.5965 13.3611 22.7991 13.3133C22.7881 13.2923 22.7841 13.2693 22.7731 13.2483C22.6903 13.094 22.6229 12.9319 22.5721 12.7643Z" fill="#1ABF00"/>
<path d="M28.6229 0.996094H9.3969C8.48647 0.997152 7.61363 1.35929 6.96986 2.00306C6.32609 2.64683 5.96395 3.51966 5.96289 4.43009V9.4061C6.18395 9.32967 6.416 9.28981 6.64989 9.28809C7.07733 9.2807 7.49622 9.40823 7.84702 9.65257C8.19781 9.8969 8.46265 10.2456 8.6039 10.6491L9.50389 13.3601H12.1399C12.5279 13.3602 12.908 13.4698 13.2365 13.6764C13.5649 13.8829 13.8284 14.178 13.9966 14.5277C14.1648 14.8773 14.2309 15.2674 14.1872 15.6529C14.1436 16.0385 13.992 16.4039 13.7499 16.7071L12.0319 18.8541H28.6229C29.5333 18.853 30.4062 18.4909 31.0499 17.8471C31.6937 17.2034 32.0558 16.3305 32.0569 15.4201V4.43309C32.0566 3.52214 31.6948 2.64854 31.051 2.00412C30.4071 1.3597 29.5338 0.997154 28.6229 0.996094ZM23.1289 5.1161H24.5019C24.5942 5.11257 24.6864 5.12772 24.7727 5.16063C24.8591 5.19354 24.9379 5.24354 25.0045 5.30763C25.0711 5.37173 25.1241 5.4486 25.1603 5.53365C25.1965 5.61869 25.2151 5.71017 25.2151 5.8026C25.2151 5.89502 25.1965 5.98649 25.1603 6.07154C25.1241 6.15659 25.0711 6.23346 25.0045 6.29755C24.9379 6.36165 24.8591 6.41165 24.7727 6.44456C24.6864 6.47748 24.5942 6.49262 24.5019 6.48909H23.1289C22.9514 6.48231 22.7833 6.40702 22.6601 6.27902C22.5369 6.15102 22.4681 5.98026 22.4681 5.8026C22.4681 5.62493 22.5369 5.45417 22.6601 5.32616C22.7833 5.19816 22.9514 5.12287 23.1289 5.1161ZM14.8879 5.1161H16.2609C16.4384 5.12287 16.6064 5.19816 16.7297 5.32616C16.8529 5.45417 16.9217 5.62493 16.9217 5.8026C16.9217 5.98026 16.8529 6.15102 16.7297 6.27902C16.6064 6.40702 16.4384 6.48231 16.2609 6.48909H14.8899C14.7124 6.48231 14.5444 6.40702 14.4211 6.27902C14.2979 6.15102 14.2291 5.98026 14.2291 5.8026C14.2291 5.62493 14.2979 5.45417 14.4211 5.32616C14.5444 5.19816 14.7124 5.12287 14.8899 5.1161H14.8879ZM10.0809 5.80309C10.0809 5.62089 10.1533 5.44615 10.2821 5.31731C10.4109 5.18848 10.5857 5.1161 10.7679 5.1161H12.1409C12.2332 5.11257 12.3254 5.12772 12.4117 5.16063C12.4981 5.19354 12.5769 5.24354 12.6435 5.30763C12.7101 5.37173 12.7631 5.4486 12.7993 5.53365C12.8355 5.61869 12.8541 5.71017 12.8541 5.8026C12.8541 5.89502 12.8355 5.98649 12.7993 6.07154C12.7631 6.15659 12.7101 6.23346 12.6435 6.29755C12.5769 6.36165 12.4981 6.41165 12.4117 6.44456C12.3254 6.47748 12.2332 6.49262 12.1409 6.48909H10.7699C10.5884 6.48909 10.4142 6.41726 10.2855 6.28929C10.1568 6.16132 10.084 5.9876 10.0829 5.80609L10.0809 5.80309ZM17.6349 14.7301H16.2639C16.0864 14.7233 15.9184 14.648 15.7951 14.52C15.6719 14.392 15.6031 14.2213 15.6031 14.0436C15.6031 13.8659 15.6719 13.6952 15.7951 13.5672C15.9184 13.4392 16.0864 13.3639 16.2639 13.3571H17.6369C17.7293 13.3536 17.8214 13.3687 17.9077 13.4016C17.9941 13.4345 18.0729 13.4845 18.1395 13.5486C18.2061 13.6127 18.2591 13.6896 18.2953 13.7747C18.3314 13.8597 18.3501 13.9512 18.3501 14.0436C18.3501 14.136 18.3314 14.2275 18.2953 14.3125C18.2591 14.3976 18.2061 14.4745 18.1395 14.5386C18.0729 14.6026 17.9941 14.6527 17.9077 14.6856C17.8214 14.7185 17.7293 14.7336 17.6369 14.7301H17.6349ZM17.6349 10.6101H12.1439C12.0515 10.6136 11.9594 10.5985 11.8731 10.5656C11.7867 10.5326 11.7078 10.4827 11.6413 10.4186C11.5747 10.3545 11.5217 10.2776 11.4855 10.1925C11.4493 10.1075 11.4307 10.016 11.4307 9.92359C11.4307 9.83117 11.4493 9.7397 11.4855 9.65465C11.5217 9.5696 11.5747 9.49273 11.6413 9.42863C11.7078 9.36454 11.7867 9.31454 11.8731 9.28162C11.9594 9.24871 12.0515 9.23357 12.1439 9.23709H17.6379C17.7303 9.23357 17.8224 9.24871 17.9087 9.28162C17.9951 9.31454 18.0739 9.36454 18.1405 9.42863C18.2071 9.49273 18.2601 9.5696 18.2963 9.65465C18.3325 9.7397 18.3511 9.83117 18.3511 9.92359C18.3511 10.016 18.3325 10.1075 18.2963 10.1925C18.2601 10.2776 18.2071 10.3545 18.1405 10.4186C18.0739 10.4827 17.9951 10.5326 17.9087 10.5656C17.8224 10.5985 17.7303 10.6136 17.6379 10.6101H17.6349ZM18.3229 5.80609C18.3229 5.62389 18.3953 5.44915 18.5241 5.32031C18.6529 5.19147 18.8277 5.11909 19.0099 5.11909H20.3829C20.4753 5.11557 20.5674 5.13072 20.6537 5.16363C20.7401 5.19654 20.8189 5.24654 20.8855 5.31063C20.9521 5.37473 21.0051 5.4516 21.0413 5.53665C21.0774 5.6217 21.0961 5.71317 21.0961 5.8056C21.0961 5.89802 21.0774 5.98949 21.0413 6.07454C21.0051 6.15959 20.9521 6.23646 20.8855 6.30055C20.8189 6.36465 20.7401 6.41465 20.6537 6.44756C20.5674 6.48047 20.4753 6.49562 20.3829 6.4921H19.0109C18.9207 6.49223 18.8313 6.47459 18.7479 6.44019C18.6645 6.40578 18.5887 6.35528 18.5248 6.29158C18.4609 6.22788 18.4102 6.15222 18.3756 6.06892C18.3409 5.98562 18.323 5.89631 18.3229 5.80609ZM25.1899 14.7331C24.707 14.7301 24.2335 14.599 23.8179 14.3531C23.4016 14.5999 22.9269 14.7311 22.4429 14.7331C21.7143 14.7331 21.0156 14.4437 20.5005 13.9285C19.9853 13.4134 19.6959 12.7146 19.6959 11.9861C19.6959 11.2575 19.9853 10.5588 20.5005 10.0437C21.0156 9.52851 21.7143 9.23909 22.4429 9.23909C22.9269 9.24112 23.4016 9.37231 23.8179 9.61909C24.182 9.40757 24.59 9.28276 25.0102 9.25435C25.4303 9.22593 25.8514 9.29468 26.2407 9.45525C26.63 9.61582 26.9771 9.8639 27.255 10.1803C27.533 10.4966 27.7343 10.8727 27.8435 11.2795C27.9526 11.6862 27.9666 12.1126 27.8844 12.5256C27.8021 12.9386 27.6259 13.3271 27.3692 13.661C27.1126 13.9949 26.7825 14.2652 26.4046 14.451C26.0267 14.6367 25.611 14.7329 25.1899 14.7321V14.7331Z" fill="#1ABF00"/>
<path d="M12.7684 15.1236C12.7124 15.007 12.6246 14.9085 12.5151 14.8395C12.4056 14.7705 12.2789 14.7338 12.1494 14.7336H8.51844L7.30144 11.0826C7.24471 10.9578 7.15325 10.852 7.03799 10.7778C6.92273 10.7035 6.78854 10.6641 6.65144 10.6641C6.51435 10.6641 6.38016 10.7035 6.2649 10.7778C6.14963 10.852 6.05817 10.9578 6.00144 11.0826L4.78444 14.7336H1.15644C1.02703 14.7333 0.900167 14.7696 0.790503 14.8383C0.680839 14.907 0.59285 15.0054 0.536695 15.1219C0.480541 15.2385 0.458513 15.3686 0.473155 15.4972C0.487798 15.6258 0.538513 15.7476 0.619444 15.8486L3.14544 19.0046L1.86844 23.4716C1.82977 23.6068 1.83349 23.7505 1.8791 23.8835C1.92471 24.0165 2.01001 24.1323 2.1235 24.2152C2.23699 24.2982 2.37319 24.3443 2.51374 24.3474C2.65428 24.3506 2.7924 24.3105 2.90944 24.2326L6.64944 21.7396L10.3894 24.2326C10.5065 24.3105 10.6446 24.3506 10.7851 24.3474C10.9257 24.3443 11.0619 24.2982 11.1754 24.2152C11.2889 24.1323 11.3742 24.0165 11.4198 23.8835C11.4654 23.7505 11.4691 23.6068 11.4304 23.4716L10.1544 19.0056L12.6804 15.8506C12.7621 15.75 12.8136 15.6284 12.8292 15.4998C12.8448 15.3712 12.8237 15.2408 12.7684 15.1236Z" fill="#1ABF00"/>
</svg>
