<svg width="29" height="22" viewBox="0 0 29 22" fill="none" xmlns="http://www.w3.org/2000/svg">
<path d="M25.8327 0.466797H2.53275C2.16388 0.468842 1.80022 0.553949 1.46875 0.715797L14.1287 13.3758L16.9658 10.6488L26.8988 0.716797C26.5668 0.55431 26.2024 0.468853 25.8327 0.466797Z" fill="#1ABF00"/>
<path d="M28.0696 1.88867L18.7227 11.2357L28.0696 20.5827C28.2315 20.2512 28.3166 19.8875 28.3186 19.5187V2.95267C28.3166 2.58381 28.2315 2.22013 28.0696 1.88867Z" fill="#1ABF00"/>
<path d="M0.295875 1.88672C0.13388 2.21849 0.0487697 2.58252 0.046875 2.95172L0.046875 19.5157C0.0489541 19.8846 0.134059 20.2482 0.295875 20.5797L9.64688 11.2337L0.295875 1.88672Z" fill="#1ABF00"/>
<path d="M17.5537 12.4043L14.7157 15.1313C14.6388 15.2082 14.5475 15.2692 14.4471 15.3108C14.3466 15.3524 14.2389 15.3738 14.1302 15.3738C14.0215 15.3738 13.9138 15.3524 13.8133 15.3108C13.7129 15.2692 13.6216 15.2082 13.5447 15.1313L10.8177 12.4043L1.4707 21.7513C1.80249 21.9133 2.1665 21.9984 2.5357 22.0003H25.8357C26.2046 21.9983 26.5682 21.9132 26.8997 21.7513L17.5537 12.4043Z" fill="#1ABF00"/>
</svg>
