<svg width="41" height="40" viewBox="0 0 41 40" fill="none" xmlns="http://www.w3.org/2000/svg">
<path d="M20.5 40C31.8218 40 41 31.0457 41 20C41 8.9543 31.8218 0 20.5 0C9.17816 0 0 8.9543 0 20C0 31.0457 9.17816 40 20.5 40Z" fill="#B383F3"/>
<path d="M25.4315 23.5126C26.5469 21.9876 27.0456 20.0979 26.828 18.2212C26.6104 16.3444 25.6925 14.6189 24.2578 13.3897C22.8231 12.1604 20.9773 11.5178 19.0894 11.5905C17.2015 11.6632 15.4106 12.4457 14.0746 13.7817C12.7387 15.1176 11.9562 16.9085 11.8835 18.7965C11.8108 20.6844 12.4533 22.5302 13.6826 23.9649C14.9119 25.3996 16.6374 26.3175 18.5141 26.5351C20.3909 26.7527 22.2806 26.2539 23.8055 25.1386L28.7055 30.0386L30.3315 28.4096L25.4315 23.5096V23.5126ZM19.4025 24.2856C18.3788 24.2856 17.3781 23.982 16.5269 23.4133C15.6757 22.8445 15.0123 22.0361 14.6205 21.0903C14.2288 20.1446 14.1263 19.1038 14.326 18.0998C14.5257 17.0957 15.0187 16.1735 15.7426 15.4496C16.4664 14.7257 17.3887 14.2328 18.3928 14.033C19.3968 13.8333 20.4375 13.9358 21.3833 14.3276C22.3291 14.7193 23.1375 15.3828 23.7062 16.2339C24.275 17.0851 24.5785 18.0859 24.5785 19.1096C24.5772 20.4819 24.0315 21.7977 23.0611 22.7681C22.0907 23.7385 20.7749 24.2843 19.4025 24.2856Z" fill="white"/>
</svg>
