<svg width="32" height="31" viewBox="0 0 32 31" fill="none" xmlns="http://www.w3.org/2000/svg">
<path d="M31.021 14.8192L1.69704 0.872182C1.46834 0.76645 1.21051 0.741518 0.965789 0.801472C0.721069 0.861426 0.503963 1.00271 0.350036 1.20218C0.19078 1.40466 0.101969 1.65359 0.0970955 1.91115C0.0922223 2.16871 0.171553 2.42082 0.323036 2.62918C0.323036 2.62918 6.62903 10.1972 9.77604 14.5212C9.84304 14.6132 15.886 15.8742 15.886 15.8742C15.886 15.8742 9.83904 17.1092 9.77604 17.1962C6.62504 21.5242 0.323036 29.1192 0.323036 29.1192C0.17174 29.3275 0.0923517 29.5794 0.0968618 29.8369C0.101372 30.0943 0.189536 30.3433 0.348036 30.5462C0.451646 30.6802 0.584521 30.7889 0.736515 30.8637C0.888509 30.9386 1.0556 30.9777 1.22504 30.9782C1.38832 30.9786 1.54962 30.9424 1.69704 30.8722L31.019 16.9292C31.2157 16.8319 31.3813 16.6815 31.4971 16.4951C31.6129 16.3087 31.6742 16.0936 31.6742 15.8742C31.6742 15.6547 31.6129 15.4397 31.4971 15.2532C31.3813 15.0668 31.2157 14.9165 31.019 14.8192H31.021Z" fill="#B383F3"/>
</svg>
