<svg width="21" height="24" viewBox="0 0 21 24" fill="none" xmlns="http://www.w3.org/2000/svg">
<path d="M10.428 11.3994C11.1781 11.4098 11.9223 11.2671 12.6152 10.9799C13.3081 10.6928 13.9352 10.2673 14.458 9.72944C14.9957 9.20652 15.421 8.57942 15.708 7.88649C15.995 7.19356 16.1376 6.44937 16.127 5.69944C16.1372 4.94961 15.9944 4.20558 15.7072 3.51284C15.4201 2.82009 14.9947 2.19319 14.457 1.67044C13.3882 0.602096 11.9388 0.00195312 10.4275 0.00195312C8.91631 0.00195313 7.46692 0.602096 6.39804 1.67044C5.86052 2.19324 5.43528 2.82018 5.14831 3.51292C4.86134 4.20567 4.71867 4.94967 4.72904 5.69944C4.71867 6.44944 4.86142 7.19367 5.14857 7.88661C5.43571 8.57954 5.86122 9.2066 6.39905 9.72944C6.9218 10.2671 7.5487 10.6925 8.24145 10.9796C8.93419 11.2668 9.67822 11.4096 10.428 11.3994Z" fill="#1ABF00"/>
<path d="M20.4 18.1939C20.3629 17.6908 20.2989 17.1901 20.208 16.6939C20.1183 16.1864 19.9954 15.6853 19.84 15.1939C19.6828 14.7072 19.4757 14.238 19.222 13.7939C18.9718 13.3462 18.6579 12.9373 18.29 12.5799C17.9024 12.2155 17.4476 11.9299 16.951 11.7389C16.406 11.529 15.8261 11.4241 15.242 11.4299C14.9013 11.4665 14.5791 11.6033 14.316 11.8229C14.038 12.0039 13.716 12.2129 13.351 12.4449C12.9593 12.679 12.5401 12.8638 12.103 12.9949C11.1116 13.3239 10.0404 13.3239 9.04902 12.9949C8.61187 12.8639 8.19267 12.6792 7.80102 12.4449C7.44202 12.2159 7.11702 12.0059 6.83502 11.8229C6.57203 11.6032 6.24977 11.4664 5.90902 11.4299C5.32488 11.4243 4.74497 11.5295 4.20002 11.7399C3.70335 11.9307 3.24856 12.2164 2.86102 12.5809C2.4935 12.9383 2.17989 13.3473 1.93002 13.7949C1.67645 14.2391 1.46935 14.7082 1.31202 15.1949C1.15675 15.6863 1.03382 16.1874 0.94402 16.6949C0.853091 17.1911 0.788998 17.6918 0.75202 18.1949C0.72102 18.6479 0.70502 19.1179 0.70502 19.5949C0.680683 20.1444 0.771983 20.6928 0.97301 21.2048C1.17404 21.7168 1.48031 22.1808 1.87202 22.5669C2.68978 23.3163 3.77076 23.7117 4.87902 23.6669H16.274C17.3823 23.7117 18.4633 23.3163 19.281 22.5669C19.673 22.1808 19.9794 21.7166 20.1804 21.2044C20.3815 20.6922 20.4726 20.1436 20.448 19.5939C20.448 19.1169 20.432 18.6469 20.4 18.1939Z" fill="#1ABF00"/>
</svg>
