<?xml version="1.0" standalone="no"?>
<!DOCTYPE svg PUBLIC "-//W3C//DTD SVG 20010904//EN"
 "http://www.w3.org/TR/2001/REC-SVG-20010904/DTD/svg10.dtd">
<svg version="1.0" xmlns="http://www.w3.org/2000/svg"
 width="512.000000pt" height="199.000000pt" viewBox="0 0 512.000000 199.000000"
 preserveAspectRatio="xMidYMid meet">

<g transform="translate(0.000000,199.000000) scale(0.100000,-0.100000)"
fill="#000000" stroke="none">
<path d="M369 1950 c-23 -14 -36 -53 -49 -145 -6 -44 -29 -186 -50 -315 -21
-129 -44 -271 -50 -315 -6 -44 -31 -204 -56 -355 -75 -460 -84 -531 -73 -551
9 -18 24 -19 214 -19 234 0 215 11 191 -104 -23 -109 -28 -106 180 -106 97 0
184 4 194 10 21 11 36 53 45 125 4 28 13 84 21 126 8 41 18 110 23 153 13 116
18 119 189 127 116 5 148 10 206 33 231 90 348 275 350 551 1 140 -23 206 -93
261 l-46 35 0 102 c-1 88 -4 109 -26 157 -52 111 -132 174 -274 216 -52 15
-113 18 -470 21 -256 2 -416 -1 -426 -7z m1190 -574 c-6 -26 -13 -45 -16 -43
-2 3 1 26 8 51 6 26 13 45 16 43 2 -3 -1 -26 -8 -51z m-46 -141 c-3 -9 -8 -14
-10 -11 -3 3 -2 9 2 15 9 16 15 13 8 -4z m-53 -90 c-17 -25 -33 -45 -36 -45
-3 0 9 20 26 45 17 25 33 45 36 45 3 0 -9 -20 -26 -45z m-340 -240 c-19 -7
-42 -13 -50 -13 -8 0 1 6 20 13 19 7 42 13 50 13 8 0 -1 -6 -20 -13z m-77 -22
c-7 -2 -19 -2 -25 0 -7 3 -2 5 12 5 14 0 19 -2 13 -5z m-140 -10 c-7 -2 -19
-2 -25 0 -7 3 -2 5 12 5 14 0 19 -2 13 -5z m44 1 c-3 -3 -12 -4 -19 -1 -8 3
-5 6 6 6 11 1 17 -2 13 -5z m-297 -7 c0 -2 -10 -12 -22 -23 l-23 -19 19 23
c18 21 26 27 26 19z m-43 -69 c-3 -8 -6 -5 -6 6 -1 11 2 17 5 13 3 -3 4 -12 1
-19z m-10 -65 c-3 -10 -5 -4 -5 12 0 17 2 24 5 18 2 -7 2 -21 0 -30z m-10 -75
c-3 -8 -6 -5 -6 6 -1 11 2 17 5 13 3 -3 4 -12 1 -19z m-20 -150 c-3 -8 -6 -5
-6 6 -1 11 2 17 5 13 3 -3 4 -12 1 -19z m-10 -50 c-3 -8 -6 -5 -6 6 -1 11 2
17 5 13 3 -3 4 -12 1 -19z m-10 -55 c-3 -10 -5 -4 -5 12 0 17 2 24 5 18 2 -7
2 -21 0 -30z m-10 -75 c-3 -8 -6 -5 -6 6 -1 11 2 17 5 13 3 -3 4 -12 1 -19z
m-10 -60 c-3 -7 -5 -2 -5 12 0 14 2 19 5 13 2 -7 2 -19 0 -25z"/>
<path d="M2049 1338 c-12 -10 -27 -83 -58 -283 -23 -148 -44 -287 -47 -307
l-7 -38 76 0 c53 0 76 4 80 13 3 7 11 49 17 93 7 43 17 85 23 92 6 7 35 12 76
12 85 0 162 23 205 60 42 37 77 117 83 189 6 77 -16 118 -82 151 -44 22 -64
25 -200 28 -115 3 -154 1 -166 -10z m259 -138 c12 -12 22 -30 22 -41 0 -37
-29 -89 -55 -99 -29 -11 -125 -14 -125 -3 0 11 21 137 25 151 7 21 108 15 133
-8z"/>
<path d="M3711 1331 c-8 -5 -20 -58 -31 -142 -10 -74 -28 -192 -39 -264 -12
-71 -24 -149 -28 -173 l-6 -43 69 3 68 3 8 35 c4 19 10 60 13 90 9 83 10 84
127 91 81 5 111 11 139 28 67 40 119 137 119 221 0 94 -37 133 -142 150 -76
12 -278 13 -297 1z m257 -121 c27 -25 30 -94 7 -127 -18 -26 -72 -43 -133 -43
-39 0 -42 2 -38 23 3 12 8 49 11 81 10 86 10 86 74 86 44 0 62 -5 79 -20z"/>
<path d="M4781 1273 c-6 -38 -25 -162 -42 -278 -17 -116 -33 -227 -36 -247
l-6 -38 57 0 c68 0 67 -2 91 151 9 57 21 127 26 154 10 56 39 280 39 308 0 14
-9 17 -59 17 l-59 0 -11 -67z"/>
<path d="M2620 1120 c-87 -41 -137 -111 -147 -205 -10 -99 19 -165 90 -201 49
-26 139 -21 192 10 44 26 45 26 45 6 0 -20 5 -21 73 -18 l72 3 27 160 c14 88
28 180 30 205 l3 45 -68 3 c-62 3 -69 1 -74 -17 -5 -20 -5 -20 -34 2 -43 31
-148 35 -209 7z m197 -125 c85 -98 -86 -246 -177 -155 -31 31 -27 100 7 140
34 41 58 51 108 45 27 -2 47 -12 62 -30z"/>
<path d="M4330 1131 c-87 -27 -155 -86 -175 -154 -29 -99 -15 -187 38 -236 50
-46 183 -47 231 -2 30 28 46 27 46 -4 0 -25 1 -26 62 -23 l62 3 17 85 c10 47
23 126 28 175 6 50 14 102 17 118 l6 27 -66 0 c-57 0 -65 -3 -71 -21 -6 -19
-8 -19 -25 -4 -40 36 -116 52 -170 36z m119 -102 c54 -19 77 -90 47 -147 -20
-38 -45 -58 -91 -72 -80 -24 -144 29 -131 107 8 54 29 87 66 105 41 21 65 22
109 7z"/>
<path d="M3070 1116 c0 -8 27 -91 60 -186 33 -95 60 -175 60 -179 0 -4 -27
-45 -60 -92 -33 -46 -56 -87 -51 -92 4 -4 39 -7 77 -5 l68 3 66 95 c37 52 120
171 185 265 65 93 120 177 123 187 4 16 -3 18 -69 18 -65 -1 -76 -3 -90 -23
-8 -12 -44 -64 -79 -115 -34 -51 -66 -90 -70 -85 -5 4 -18 42 -30 83 -12 41
-26 90 -31 108 l-11 32 -74 0 c-57 0 -74 -3 -74 -14z"/>
</g>
</svg>
